<svg width="219" height="220" viewBox="0 0 219 220" fill="none" xmlns="http://www.w3.org/2000/svg">
<path d="M65.4697 9.00202C96.5191 -4.61293 147.68 -4.17352 167.791 19.9805C173.044 26.5649 180.913 39.7405 173.477 39.7405C168.67 39.7405 162.546 30.9523 158.611 30.9523C157.739 30.9523 156.86 31.3917 156.86 32.2705C156.86 34.4675 159.923 35.7858 159.923 39.3011C159.923 40.1731 159.483 40.6125 159.051 40.6125C150.303 40.6125 145.929 20.8593 127.129 15.147C118.381 2.41763 101.326 3.28969 93.0174 14.2682C90.8338 14.7076 89.083 15.147 86.8994 15.5864C86.0206 15.5864 82.0862 5.92615 65.4697 9.00202ZM117.942 13.3894C112.696 10.3203 106.571 10.3203 101.326 13.3894C87.3321 21.7314 93.0174 43.6884 109.634 43.6884C126.25 43.6884 131.496 21.292 117.942 13.3894Z" fill="#14B9EE"/>
<path d="M0.748047 97.6955C4.24981 65.2062 22.1777 36.2254 48.8533 18.2231C61.096 12.9502 79.4633 12.0713 81.6469 16.9049C83.8371 22.6104 68.5321 23.9287 66.3419 27.8834C65.9092 28.7622 65.9092 29.641 66.3419 30.0804C68.0927 30.9525 70.7157 29.2016 73.778 30.9525C74.2174 31.3919 74.6501 31.8313 74.2174 32.7101C69.8436 40.1733 50.6042 34.4677 36.6107 47.6433C21.7383 48.5221 13.4301 63.888 18.6827 76.6241C17.8039 78.375 17.3645 80.572 16.9319 82.3297C8.62363 83.2085 3.37775 89.7929 0.748047 97.6955ZM46.2304 54.6671C38.7942 50.273 28.7351 52.47 23.9286 60.8121C13.4301 79.2538 41.4172 95.9379 51.9157 77.0635C56.7222 69.1541 54.0992 59.0544 46.2304 54.6671Z" fill="#9946DD"/>
<path d="M44.4799 198.253C17.8043 178.493 2.05991 147.754 0.315791 117.016C-2.30715 114.386 12.119 79.6929 17.3649 89.3531C19.9946 93.7472 15.1814 103.408 16.9323 106.477C17.3649 107.355 18.2437 107.795 18.6831 107.355C20.4273 106.477 19.9946 102.968 23.0502 101.21C23.4896 100.771 24.3617 100.771 24.8011 101.65C29.1749 109.113 14.3093 123.167 19.1158 142.049C19.1158 142.481 18.6831 142.049 17.8043 144.678C13.8699 157.414 22.1781 170.583 35.2996 172.341C35.7323 172.341 34.4208 171.462 39.234 176.735C36.1717 184.198 39.234 192.101 44.4799 198.253ZM30.047 137.215C18.6831 143.799 19.5552 159.611 30.4864 165.756C44.9193 173.659 60.657 157.414 52.3487 143.36C47.9749 135.018 37.9225 132.388 30.047 137.215Z" fill="#FA52B9"/>
<path d="M153.365 210.542C123.188 223.718 88.6435 222.4 60.6565 208.345C59.7844 209.224 42.7285 192.101 42.7285 182.88C42.7285 181.122 43.6073 179.804 45.7909 179.804C50.6041 179.804 56.722 188.592 60.6565 188.592C61.5353 188.592 62.4073 188.153 62.4073 187.274C62.4073 185.077 59.345 183.759 59.345 180.243C59.345 179.371 59.7844 178.932 60.2238 178.932C68.9647 178.932 73.3385 198.685 92.1453 204.397C100.886 217.127 117.942 216.255 126.25 205.276C128.441 204.837 130.185 204.397 132.375 203.958C132.814 203.958 137.181 214.058 153.365 210.542ZM109.634 176.295C93.8894 176.295 87.332 196.495 100.014 205.716C100.453 205.716 108.322 212.3 117.942 206.594C118.381 206.594 125.818 201.761 125.818 192.54C125.818 183.319 118.381 176.295 109.634 176.295Z" fill="#FF586F"/>
<path d="M218.52 121.849C215.019 154.778 196.658 183.759 169.982 201.322C156.861 207.034 133.248 207.473 137.622 200.003C140.244 195.616 150.743 195.177 152.487 191.661C152.927 190.782 152.927 189.904 152.487 189.464C150.743 188.592 148.12 190.343 145.058 188.592C144.618 188.153 144.179 187.713 144.618 186.835C148.992 179.371 168.232 185.077 182.225 171.462C197.53 170.15 205.399 155.217 200.153 142.481C201.032 140.73 201.464 138.533 201.904 136.776C210.212 136.776 215.897 129.752 218.52 121.849ZM166.481 142.921C158.172 157.414 174.356 173.22 188.35 165.317C199.714 159.172 199.714 142.921 188.782 136.776C180.914 132.388 171.294 135.018 166.481 142.921Z" fill="#FBEE42"/>
<path d="M166.48 76.6239C158.172 62.5695 173.917 46.3249 188.349 54.2275C194.035 57.3034 197.53 63.4483 196.658 70.0327C196.658 84.0871 175.228 91.5503 166.48 76.6239ZM174.356 21.292C180.041 27.4437 182.664 35.7858 179.162 42.8096C180.474 44.1278 181.785 45.8854 183.097 47.2037C195.346 47.2037 206.277 64.3272 199.281 77.4959C204.087 96.3771 189.222 110.431 193.595 117.895C194.035 118.773 194.467 118.334 195.346 118.334C198.402 116.576 197.969 113.068 199.713 112.189C200.592 111.75 201.031 112.189 201.464 113.068C203.654 116.576 197.09 130.631 203.215 131.949C211.084 133.7 219.831 104.286 218.52 102.968C217.209 71.7904 201.464 41.4913 174.356 21.292Z" fill="#21E4C7"/>
<path d="M65.4697 9.00202C96.5191 -4.61293 147.68 -4.17352 167.791 19.9805C173.044 26.5649 180.913 39.7405 173.477 39.7405C168.67 39.7405 162.546 30.9523 158.611 30.9523C157.739 30.9523 156.86 31.3917 156.86 32.2705C156.86 34.4675 159.923 35.7858 159.923 39.3011C159.923 40.1731 159.483 40.6125 159.051 40.6125C150.303 40.6125 145.929 20.8593 127.129 15.147C118.381 2.41763 101.326 3.28969 93.0174 14.2682C90.8338 14.7076 89.083 15.147 86.8994 15.5864C86.0206 15.5864 82.0862 5.92615 65.4697 9.00202ZM117.942 13.3894C112.696 10.3203 106.571 10.3203 101.326 13.3894C87.3321 21.7314 93.0174 43.6884 109.634 43.6884C126.25 43.6884 131.496 21.292 117.942 13.3894Z" fill="#14B9EE"/>
<path d="M0.748047 97.6955C4.24981 65.2062 22.1777 36.2254 48.8533 18.2231C61.096 12.9502 79.4633 12.0713 81.6469 16.9049C83.8371 22.6104 68.5321 23.9287 66.3419 27.8834C65.9092 28.7622 65.9092 29.641 66.3419 30.0804C68.0927 30.9525 70.7157 29.2016 73.778 30.9525C74.2174 31.3919 74.6501 31.8313 74.2174 32.7101C69.8436 40.1733 50.6042 34.4677 36.6107 47.6433C21.7383 48.5221 13.4301 63.888 18.6827 76.6241C17.8039 78.375 17.3645 80.572 16.9319 82.3297C8.62363 83.2085 3.37775 89.7929 0.748047 97.6955ZM46.2304 54.6671C38.7942 50.273 28.7351 52.47 23.9286 60.8121C13.4301 79.2538 41.4172 95.9379 51.9157 77.0635C56.7222 69.1541 54.0992 59.0544 46.2304 54.6671Z" fill="#9946DD"/>
<path d="M44.4799 198.253C17.8043 178.493 2.05991 147.754 0.315791 117.016C-2.30715 114.386 12.119 79.6929 17.3649 89.3531C19.9946 93.7472 15.1814 103.408 16.9323 106.477C17.3649 107.355 18.2437 107.795 18.6831 107.355C20.4273 106.477 19.9946 102.968 23.0502 101.21C23.4896 100.771 24.3617 100.771 24.8011 101.65C29.1749 109.113 14.3093 123.167 19.1158 142.049C19.1158 142.481 18.6831 142.049 17.8043 144.678C13.8699 157.414 22.1781 170.583 35.2996 172.341C35.7323 172.341 34.4208 171.462 39.234 176.735C36.1717 184.198 39.234 192.101 44.4799 198.253ZM30.047 137.215C18.6831 143.799 19.5552 159.611 30.4864 165.756C44.9193 173.659 60.657 157.414 52.3487 143.36C47.9749 135.018 37.9225 132.388 30.047 137.215Z" fill="#FA52B9"/>
<path d="M153.365 210.542C123.188 223.718 88.6435 222.4 60.6565 208.345C59.7844 209.224 42.7285 192.101 42.7285 182.88C42.7285 181.122 43.6073 179.804 45.7909 179.804C50.6041 179.804 56.722 188.592 60.6565 188.592C61.5353 188.592 62.4073 188.153 62.4073 187.274C62.4073 185.077 59.345 183.759 59.345 180.243C59.345 179.371 59.7844 178.932 60.2238 178.932C68.9647 178.932 73.3385 198.685 92.1453 204.397C100.886 217.127 117.942 216.255 126.25 205.276C128.441 204.837 130.185 204.397 132.375 203.958C132.814 203.958 137.181 214.058 153.365 210.542ZM109.634 176.295C93.8894 176.295 87.332 196.495 100.014 205.716C100.453 205.716 108.322 212.3 117.942 206.594C118.381 206.594 125.818 201.761 125.818 192.54C125.818 183.319 118.381 176.295 109.634 176.295Z" fill="#FF586F"/>
<path d="M218.52 121.849C215.019 154.778 196.658 183.759 169.982 201.322C156.861 207.034 133.248 207.473 137.622 200.003C140.244 195.616 150.743 195.177 152.487 191.661C152.927 190.782 152.927 189.904 152.487 189.464C150.743 188.592 148.12 190.343 145.058 188.592C144.618 188.153 144.179 187.713 144.618 186.835C148.992 179.371 168.232 185.077 182.225 171.462C197.53 170.15 205.399 155.217 200.153 142.481C201.032 140.73 201.464 138.533 201.904 136.776C210.212 136.776 215.897 129.752 218.52 121.849ZM166.481 142.921C158.172 157.414 174.356 173.22 188.35 165.317C199.714 159.172 199.714 142.921 188.782 136.776C180.914 132.388 171.294 135.018 166.481 142.921Z" fill="#FBEE42"/>
<path d="M166.48 76.6239C158.172 62.5695 173.917 46.3249 188.349 54.2275C194.035 57.3034 197.53 63.4483 196.658 70.0327C196.658 84.0871 175.228 91.5503 166.48 76.6239ZM174.356 21.292C180.041 27.4437 182.664 35.7858 179.162 42.8096C180.474 44.1278 181.785 45.8854 183.097 47.2037C195.346 47.2037 206.277 64.3272 199.281 77.4959C204.087 96.3771 189.222 110.431 193.595 117.895C194.035 118.773 194.467 118.334 195.346 118.334C198.402 116.576 197.969 113.068 199.713 112.189C200.592 111.75 201.031 112.189 201.464 113.068C203.654 116.576 197.09 130.631 203.215 131.949C211.084 133.7 219.831 104.286 218.52 102.968C217.209 71.7904 201.464 41.4913 174.356 21.292Z" fill="#21E4C7"/>
</svg>
