<svg xmlns="http://www.w3.org/2000/svg" viewBox="0 0 64 64"><defs><style>.cls-1{fill:none;}.cls-2{fill:#009ede;}.cls-3{fill:#0083ca;}.cls-4{fill:#fff;}</style></defs><g id="_53.cloud" data-name="53.cloud"><path d="M22,42.78a1,1,0,0,1-.38-1.92A1,1,0,1,1,22,42.78Z" id="id_207" style="fill: rgb(166, 207, 224);"></path><path d="M22,45.78a1,1,0,1,1,.38-1.92A1,1,0,0,1,22,45.78Z" id="id_208" style="fill: rgb(166, 207, 224);"></path><path d="M22,48.79a1,1,0,1,1,.38-1.93A1,1,0,0,1,22,48.79Z" id="id_209" style="fill: rgb(166, 207, 224);"></path><path d="M22,51.78c-1.88-.14-.73-2.92.71-1.7A1,1,0,0,1,22,51.78Z" id="id_210" style="fill: rgb(166, 207, 224);"></path><path d="M22,54.79A1,1,0,0,1,21.44,53,1,1,0,1,1,22,54.79Z" id="id_211" style="fill: rgb(166, 207, 224);"></path><path d="M22,57.78a1,1,0,1,1,.38-1.92A1,1,0,0,1,22,57.78Z" id="id_212" style="fill: rgb(166, 207, 224);"></path><path d="M32,42.78c-1.73-.09-.93-2.71.56-1.83A1,1,0,0,1,32,42.78Z" id="id_213" style="fill: rgb(166, 207, 224);"></path><path d="M32,45.78c-1.88-.14-.73-2.92.71-1.7A1,1,0,0,1,32,45.78Z" id="id_214" style="fill: rgb(166, 207, 224);"></path><path d="M32,48.79a1,1,0,0,1-.83-1.56C32.5,45.65,34,48.55,32,48.79Z" id="id_215" style="fill: rgb(166, 207, 224);"></path><path d="M32,51.78a1,1,0,0,1-.38-1.92A1,1,0,1,1,32,51.78Z" id="id_216" style="fill: rgb(166, 207, 224);"></path><path d="M32,54.79c-1.87-.16-.74-2.92.71-1.71A1,1,0,0,1,32,54.79Z" id="id_217" style="fill: rgb(166, 207, 224);"></path><path d="M32,57.78a1,1,0,1,1,.38-1.92A1,1,0,0,1,32,57.78Z" id="id_218" style="fill: rgb(166, 207, 224);"></path><path d="M42,42.78A1,1,0,0,1,41.44,41C42.93,40.07,43.72,42.7,42,42.78Z" id="id_219" style="fill: rgb(166, 207, 224);"></path><path d="M42,45.78a1,1,0,1,1,.38-1.92A1,1,0,0,1,42,45.78Z" id="id_220" style="fill: rgb(166, 207, 224);"></path><path d="M42,48.79a1,1,0,0,1-.71-1.71C42.73,45.86,43.88,48.63,42,48.79Z" id="id_221" style="fill: rgb(166, 207, 224);"></path><path d="M42,51.78A1,1,0,0,1,41.44,50C42.94,49.07,43.72,51.7,42,51.78Z" id="id_222" style="fill: rgb(166, 207, 224);"></path><path d="M42,54.79A1,1,0,1,1,42.56,53,1,1,0,0,1,42,54.79Z" id="id_223" style="fill: rgb(166, 207, 224);"></path><path d="M42,57.78c-1.88-.14-.73-2.91.71-1.7A1,1,0,0,1,42,57.78Z" id="id_224" style="fill: rgb(166, 207, 224);"></path><path d="M27,42.78a1,1,0,1,1,.38-1.92A1,1,0,0,1,27,42.78Z" id="id_225" style="fill: rgb(166, 207, 224);"></path><path d="M27,45.78a1,1,0,0,1-.71-1.7C27.73,42.86,28.88,45.64,27,45.78Z" id="id_226" style="fill: rgb(166, 207, 224);"></path><path d="M27,48.79c-1.87-.16-.73-2.93.71-1.71A1,1,0,0,1,27,48.79Z" id="id_227" style="fill: rgb(166, 207, 224);"></path><path d="M27,51.78A1,1,0,0,1,26.44,50a1,1,0,0,1,1.12,0A1,1,0,0,1,27,51.78Z" id="id_228" style="fill: rgb(166, 207, 224);"></path><path d="M27,54.79A1,1,0,0,1,26.44,53C27.93,52.07,28.72,54.68,27,54.79Z" id="id_229" style="fill: rgb(166, 207, 224);"></path><path d="M27,57.78a1,1,0,1,1,.38-1.92A1,1,0,0,1,27,57.78Z" id="id_230" style="fill: rgb(166, 207, 224);"></path><path d="M37,42.78a1,1,0,0,1-.38-1.92A1,1,0,1,1,37,42.78Z" id="id_231" style="fill: rgb(166, 207, 224);"></path><path d="M37,45.78a1,1,0,1,1,.19-2A1,1,0,0,1,37,45.78Z" id="id_232" style="fill: rgb(166, 207, 224);"></path><path d="M37,48.79a1,1,0,1,1,.38-1.93A1,1,0,0,1,37,48.79Z" id="id_233" style="fill: rgb(166, 207, 224);"></path><path d="M37,51.78c-1.42,0-1.2-2.26.19-2A1,1,0,0,1,37,51.78Z" id="id_234" style="fill: rgb(166, 207, 224);"></path><path d="M37,54.79a1,1,0,1,1,.19-2A1,1,0,0,1,37,54.79Z" id="id_235" style="fill: rgb(166, 207, 224);"></path><path d="M37,57.78c-1.88-.14-.73-2.91.71-1.7A1,1,0,0,1,37,57.78Z" id="id_236" style="fill: rgb(166, 207, 224);"></path><path class="cls-1" d="M20.19,9.37a16.07,16.07,0,0,0-2.54,3.68h.11A15.94,15.94,0,0,1,20.19,9.37Z" id="id_237"></path><path class="cls-1" d="M48.27,36.3h0c-1.77-.16-34.27.43-35-.44C6,34.15,2,24.91,6.24,18.6c-5.53,7.46.39,19,9.79,18.72H48A11.93,11.93,0,0,0,59.4,28.76,11.91,11.91,0,0,1,48.27,36.3Z" id="id_238"></path><path class="cls-1" d="M20.61,8.92l.07-.06Z" id="id_239"></path><path class="cls-1" d="M40.83,8.26a1,1,0,0,0,.26.65,17.36,17.36,0,0,1,2.72,2.9,18.6,18.6,0,0,1,1.68,2.94,1,1,0,0,0,.68.4,10.44,10.44,0,0,1,8.2,1.91c.59.48,1.32,0,1.91-.21a11.77,11.77,0,0,0-9.67-3.28,16.11,16.11,0,0,0-5.85-6.78A7.31,7.31,0,0,0,40.83,8.26Z" id="id_240"></path><path class="cls-2" d="M15.3,36.24l-.4-.05Z" id="id_241" style="fill: rgb(255, 255, 255);"></path><path class="cls-2" d="M44.54,12.92a1.71,1.71,0,0,1,.13.23A1.71,1.71,0,0,0,44.54,12.92Z" id="id_242" style="fill: rgb(255, 255, 255);"></path><path class="cls-2" d="M14.23,36.09l-.5-.1Z" id="id_243" style="fill: rgb(255, 255, 255);"></path><path class="cls-2" d="M13.23,35.86l-.58-.17Z" id="id_244" style="fill: rgb(255, 255, 255);"></path><path class="cls-2" d="M12.34,35.58a12.16,12.16,0,0,1-3.1-1.66C7,26.16,14,18.3,22.1,19.39c3.43-7.72,13.48-11.29,21.18-7.72l.24-.26.29.4A22.32,22.32,0,0,0,41,8.75a5.4,5.4,0,0,1-.2-2c-7.55-5.16-19.29-2.19-23,6.27h-.11c-.09.17-.18.33-.26.51C3.51,12.13-.46,30.88,12.34,35.58Z" id="id_245" style="fill: rgb(141, 207, 235);"></path><path class="cls-3" d="M55,17.28c-2.18-1.08-4.1-2.45-6.75-2.29-.86-.11-1.74.4-2.52,0-.87-1.08-1.26-2.53-2.22-3.59l-.24.26c-7.7-3.57-17.75,0-21.18,7.72C14,18.3,7,26.16,9.24,33.92a12.17,12.17,0,0,0,7.18,2.38H48.26a11.24,11.24,0,0,0,8-19.45A4,4,0,0,1,55,17.28Z" id="id_246" style="fill: rgb(73, 172, 214);"></path><path class="cls-4" d="M35.33,8c-1.69-.8-9.95-.62-9.21,2.16a1,1,0,0,0,.9.55,11.35,11.35,0,0,1,7.77-.79A1,1,0,0,0,35.33,8Z" id="id_247" style="fill: rgb(255, 255, 255);"></path><path class="cls-4" d="M23.4,11.09c-.92.63-1.26,2.14.17,2.28.56,0,.88-.52,1.24-.87C25.74,11.6,24.3,10.16,23.4,11.09Z" id="id_248" style="fill: rgb(255, 255, 255);"></path><path class="cls-4" d="M19.45,17.49A8.72,8.72,0,0,0,9.3,19.79a1,1,0,0,0,.12,1.41,1,1,0,0,0,1.41-.11,6.64,6.64,0,0,1,5.07-2.36c1.3-.31,3.27,1.5,4,.08A1,1,0,0,0,19.45,17.49Z" id="id_249" style="fill: rgb(255, 255, 255);"></path><path class="cls-4" d="M8.64,22.78c-1.43-.22-1.34,1.64-1.39,2.61a1,1,0,0,0,1,1c1.31,0,.9-1.56,1.15-2.42A1,1,0,0,0,8.64,22.78Z" id="id_250" style="fill: rgb(255, 255, 255);"></path><path d="M46.61,13.57c-5.41-12.35-23.8-12.35-29.22,0C.77,12.31-.64,36.61,16,37.32H48C64.53,36.71,63.3,12.29,46.61,13.57ZM48,35.32H16A10,10,0,0,1,6.1,25.39c0-10.72,15-13.71,19.09-3.82A1,1,0,1,0,27,20.8,12,12,0,0,0,19.41,14C24.19,3.76,39.81,3.76,44.6,14A12,12,0,0,0,37,20.8a1,1,0,0,0,1.85.77c4.1-9.89,19.11-6.9,19.09,3.82A10,10,0,0,1,48,35.32Z" id="id_251"></path></g></svg>