<svg width="365" height="77" viewBox="0 0 365 77" fill="none" xmlns="http://www.w3.org/2000/svg">
<path d="M24.323 3.38581C35.0365 -1.32253 52.6876 -1.17148 59.6303 7.18268C61.4428 9.46393 64.1563 14.0212 61.5938 14.0212C59.9324 14.0212 57.8178 10.9796 56.4636 10.9796C56.1615 10.9796 55.8595 11.1306 55.8595 11.4379C55.8595 12.1983 56.9167 12.6514 56.9167 13.8702C56.9167 14.1723 56.7657 14.3233 56.6147 14.3233C53.5938 14.3233 52.0834 7.48477 45.599 5.51081C42.5782 1.10456 36.6928 1.41185 33.8282 5.20873C33.073 5.35977 32.4688 5.51081 31.7136 5.66185C31.4115 5.66185 30.0574 2.32331 24.323 3.38581ZM42.4272 4.90664C40.6199 3.83893 38.5053 3.83893 36.6928 4.90664C31.8647 7.79206 33.8282 15.3858 39.5626 15.3858C45.297 15.3858 47.1042 7.64102 42.4272 4.90664Z" fill="#14B9EE"/>
<mask id="mask0_346_67" style="mask-type:luminance" maskUnits="userSpaceOnUse" x="0" y="4" width="30" height="31">
<path d="M0.760498 4H30.0001V34.6667H0.760498V4Z" fill="white"/>
</mask>
<g mask="url(#mask0_346_67)">
<path d="M1.98975 34.0728C3.19808 22.8333 9.38037 12.802 18.5887 6.57285C22.8127 4.74993 29.1512 4.44785 29.9064 6.11972C30.6564 8.09368 25.3752 8.55201 24.6252 9.9166C24.4741 10.2187 24.4741 10.526 24.6252 10.677C25.2241 10.9791 26.1304 10.3749 27.1877 10.9791C27.3387 11.1301 27.4897 11.2864 27.3387 11.5885C25.8283 14.1718 19.1929 12.1978 14.3595 16.7551C9.22933 17.0572 6.36475 22.3749 8.17725 26.7812C7.87516 27.3906 7.72412 28.1458 7.57308 28.7551C4.70329 29.0572 2.896 31.3385 1.98975 34.0728ZM17.6825 19.1822C15.1147 17.6666 11.646 18.427 9.98454 21.3124C6.36475 27.6926 16.021 33.4635 19.6408 26.9322C21.3022 24.1978 20.396 20.7031 17.6825 19.1822Z" fill="#9946DD"/>
</g>
<mask id="mask1_346_67" style="mask-type:luminance" maskUnits="userSpaceOnUse" x="0" y="29" width="21" height="41">
<path d="M0.760498 29.333H20.6667V69.333H0.760498V29.333Z" fill="white"/>
</mask>
<g mask="url(#mask1_346_67)">
<path d="M17.0783 68.8644C7.87516 62.0258 2.44287 51.3904 1.8387 40.755C0.932451 39.8435 5.91162 27.8435 7.72412 31.1873C8.63037 32.7081 6.96891 36.0466 7.57308 37.1091C7.72412 37.4164 8.0262 37.5675 8.17724 37.4164C8.7762 37.1091 8.63037 35.8956 9.68245 35.2862C9.83349 35.1352 10.1356 35.1352 10.2866 35.4425C11.797 38.0206 6.66683 42.8852 8.32828 49.4164C8.32828 49.5675 8.17724 49.4164 7.87516 50.3279C6.51578 54.7341 9.38037 59.2914 13.9116 59.9008C14.0627 59.9008 13.6095 59.5935 15.2658 61.4164C14.2085 63.9998 15.2658 66.7341 17.0783 68.8644ZM12.0991 47.7446C8.17724 50.0258 8.47933 55.4946 12.2502 57.6196C17.2293 60.3539 22.6616 54.7341 19.7918 49.8748C18.2866 46.9841 14.8127 46.0727 12.0991 47.7446Z" fill="#FA52B9"/>
</g>
<path d="M54.651 73.1198C44.2395 77.6771 32.3176 77.2188 22.6614 72.3594C22.3593 72.6615 16.4739 66.7344 16.4739 63.5469C16.4739 62.9375 16.776 62.4844 17.5312 62.4844C19.1926 62.4844 21.302 65.5208 22.6614 65.5208C22.9635 65.5208 23.2655 65.3698 23.2655 65.0677C23.2655 64.3073 22.2083 63.849 22.2083 62.6354C22.2083 62.3333 22.3593 62.1771 22.5103 62.1771C25.526 62.1771 27.0364 69.0156 33.526 70.9896C36.5416 75.3958 42.427 75.0937 45.2968 71.2917C46.052 71.1406 46.651 70.9896 47.4062 70.8385C47.5572 70.8385 49.0676 74.3333 54.651 73.1198ZM39.5624 61.2656C34.1301 61.2656 31.8645 68.2552 36.2395 71.4479C36.3905 71.4479 39.1093 73.724 42.427 71.75C42.578 71.75 45.1458 70.0781 45.1458 66.8906C45.1458 63.6979 42.578 61.2656 39.5624 61.2656Z" fill="#FF586F"/>
<mask id="mask2_346_67" style="mask-type:luminance" maskUnits="userSpaceOnUse" x="48" y="41" width="30" height="31">
<path d="M48.6667 41.333H77.7605V71.9997H48.6667V41.333Z" fill="white"/>
</mask>
<g mask="url(#mask2_346_67)">
<path d="M77.1356 42.4268C75.9273 53.8226 69.5887 63.8486 60.3856 69.9268C55.8596 71.9007 47.7085 72.0518 49.2189 69.4684C50.1252 67.9528 53.745 67.8018 54.3491 66.583C54.5002 66.2809 54.5002 65.9788 54.3491 65.8226C53.745 65.5205 52.8387 66.1299 51.7814 65.5205C51.6304 65.3695 51.4846 65.2184 51.6304 64.9111C53.1408 62.333 59.7814 64.307 64.6096 59.5934C69.8908 59.1403 72.6096 53.9736 70.7971 49.5674C71.0991 48.9632 71.2502 48.2028 71.4012 47.5934C74.2658 47.5934 76.2293 45.1611 77.1356 42.4268ZM59.1773 49.7184C56.3127 54.7341 61.896 60.2028 66.7241 57.4684C70.646 55.3434 70.646 49.7184 66.8752 47.5934C64.1564 46.0726 60.8387 46.984 59.1773 49.7184Z" fill="#FBEE42"/>
</g>
<mask id="mask3_346_67" style="mask-type:luminance" maskUnits="userSpaceOnUse" x="58" y="6" width="20" height="41">
<path d="M58 6.66699H77.7604V46.667H58V6.66699Z" fill="white"/>
</mask>
<g mask="url(#mask3_346_67)">
<path d="M59.1772 26.7813C56.3126 21.9167 61.7449 16.2969 66.7241 19.0313C68.6824 20.0937 69.8907 22.224 69.5886 24.5C69.5886 29.3646 62.198 31.9479 59.1772 26.7813ZM61.8959 7.64062C63.8543 9.76563 64.7605 12.651 63.5522 15.0833C64.0053 15.5365 64.4584 16.1458 64.9116 16.6042C69.1355 16.6042 72.9116 22.526 70.4949 27.0833C72.1563 33.6198 67.0261 38.4792 68.5313 41.0625C68.6824 41.3646 68.8334 41.2135 69.1355 41.2135C70.1928 40.6042 70.0418 39.3906 70.6459 39.0885C70.948 38.9323 71.0991 39.0885 71.2501 39.3906C72.0053 40.6042 69.7397 45.4688 71.8543 45.9219C74.5678 46.5313 77.5886 36.3542 77.1355 35.8958C76.6824 25.1094 71.2501 14.625 61.8959 7.64062Z" fill="#21E4C7"/>
</g>
<path d="M93.6638 53L99.6847 24.4375H107.664C109.982 24.4375 111.836 24.7917 113.226 25.5C114.627 26.1979 115.643 27.1667 116.268 28.4167C116.903 29.6667 117.226 31.1198 117.226 32.7708C117.226 34.4687 116.914 35.9479 116.289 37.2083C115.664 38.4583 114.789 39.5104 113.664 40.3542C112.539 41.1875 111.216 41.8125 109.705 42.2292C108.205 42.6354 106.565 42.8333 104.789 42.8333H101.747L99.6222 53H93.6638ZM102.81 37.875H105.268C106.445 37.875 107.482 37.6823 108.372 37.2917C109.258 36.9063 109.955 36.3437 110.455 35.6042C110.966 34.8542 111.226 33.9583 111.226 32.9167C111.226 31.724 110.903 30.8437 110.268 30.2708C109.643 29.6875 108.695 29.3958 107.435 29.3958H104.622L102.81 37.875Z" fill="#29699D"/>
<path d="M117.746 53L122.371 31.1667H126.871L126.454 35.2083H126.663C127.246 34.2813 127.881 33.4896 128.579 32.8333C129.272 32.1667 130.022 31.6563 130.829 31.2917C131.631 30.9323 132.506 30.75 133.454 30.75C133.772 30.75 134.105 30.7708 134.454 30.8125C134.814 30.8542 135.105 30.9063 135.329 30.9583L134.058 36.625C133.85 36.5573 133.569 36.4896 133.225 36.4167C132.876 36.349 132.501 36.3125 132.1 36.3125C131.36 36.3125 130.663 36.4687 129.996 36.7708C129.34 37.0625 128.73 37.4948 128.163 38.0625C127.605 38.6354 127.11 39.3542 126.683 40.2292C126.267 41.0937 125.933 42.0937 125.683 43.2292L123.621 53H117.746Z" fill="#29699D"/>
<path d="M143.978 53.3958C142.337 53.3958 140.884 53.0521 139.623 52.375C138.373 51.6979 137.384 50.7292 136.665 49.4792C135.957 48.2187 135.603 46.724 135.603 45C135.603 43.4479 135.754 41.9687 136.061 40.5625C136.363 39.1458 136.832 37.8437 137.457 36.6458C138.082 35.4531 138.858 34.4167 139.79 33.5417C140.717 32.6563 141.8 31.9687 143.04 31.4792C144.274 30.9948 145.665 30.75 147.207 30.75C148.899 30.75 150.363 31.099 151.603 31.7917C152.837 32.474 153.795 33.4583 154.478 34.75C155.155 36.0313 155.498 37.5781 155.498 39.3958C155.498 40.8854 155.353 42.3125 155.061 43.6875C154.769 45.0625 154.316 46.3437 153.707 47.5208C153.108 48.7031 152.353 49.7292 151.436 50.6042C150.53 51.4792 149.457 52.1667 148.207 52.6667C146.967 53.151 145.561 53.3958 143.978 53.3958ZM144.457 48.6042C145.108 48.6042 145.696 48.4375 146.228 48.1042C146.769 47.7708 147.248 47.3125 147.665 46.7292C148.082 46.1354 148.425 45.4479 148.707 44.6667C148.983 43.8906 149.196 43.0573 149.353 42.1667C149.504 41.2656 149.582 40.3437 149.582 39.3958C149.582 38.6615 149.488 38.0104 149.311 37.4375C149.129 36.8542 148.832 36.3958 148.415 36.0625C148.009 35.7292 147.467 35.5625 146.79 35.5625C146.066 35.5625 145.42 35.7656 144.853 36.1667C144.295 36.5573 143.811 37.0833 143.394 37.75C142.978 38.4167 142.629 39.1615 142.353 39.9792C142.071 40.8021 141.863 41.6406 141.728 42.5C141.587 43.3646 141.519 44.1979 141.519 45C141.519 46.1823 141.759 47.0781 142.248 47.6875C142.733 48.3021 143.467 48.6042 144.457 48.6042Z" fill="#29699D"/>
<path d="M165.251 53.3955C163.527 53.3955 162.152 53.0309 161.126 52.3122C160.095 51.5778 159.584 50.2601 159.584 48.3538C159.584 48.0361 159.595 47.6976 159.626 47.333C159.668 46.958 159.73 46.5726 159.814 46.1663L162.064 35.6455H159.084L159.647 32.7705L163.48 31.1247L166.064 26.5205H169.855L168.897 31.1663H174.418L173.439 35.6455H167.939L165.689 46.1663C165.647 46.3643 165.611 46.557 165.584 46.7497C165.569 46.932 165.564 47.083 165.564 47.208C165.564 47.7236 165.715 48.0934 166.022 48.3122C166.34 48.5361 166.762 48.6455 167.293 48.6455C167.819 48.6455 168.324 48.583 168.814 48.458C169.314 48.333 169.861 48.1663 170.459 47.958V52.3538C169.834 52.6611 169.074 52.9111 168.189 53.1038C167.314 53.2965 166.334 53.3955 165.251 53.3955Z" fill="#29699D"/>
<path d="M184.053 53.3958C182.345 53.3958 180.834 53.0885 179.532 52.4792C178.241 51.8542 177.225 50.9167 176.491 49.6667C175.767 48.4167 175.407 46.849 175.407 44.9583C175.407 43.125 175.662 41.3646 176.178 39.6667C176.704 37.974 177.48 36.4583 178.511 35.125C179.553 33.7813 180.829 32.7187 182.345 31.9375C183.871 31.1458 185.626 30.75 187.616 30.75C190.074 30.75 191.907 31.3073 193.116 32.4167C194.334 33.5313 194.949 34.9583 194.949 36.7083C194.949 37.8646 194.688 38.9115 194.178 39.8542C193.662 40.7865 192.886 41.5833 191.845 42.25C190.803 42.9167 189.491 43.4323 187.907 43.7917C186.334 44.1563 184.491 44.3333 182.366 44.3333H181.366C181.35 44.4896 181.334 44.625 181.324 44.75C181.324 44.8646 181.324 44.9896 181.324 45.125C181.324 46.3073 181.662 47.2448 182.345 47.9375C183.022 48.6198 183.98 48.9583 185.22 48.9583C186.371 48.9583 187.412 48.8281 188.345 48.5625C189.287 48.3021 190.392 47.8698 191.657 47.2708V51.7083C190.517 52.2656 189.35 52.6875 188.157 52.9792C186.975 53.2552 185.605 53.3958 184.053 53.3958ZM182.011 40.3542H182.886C184.397 40.3542 185.626 40.1979 186.574 39.875C187.517 39.5573 188.204 39.1354 188.636 38.6042C189.079 38.0625 189.303 37.4792 189.303 36.8542C189.303 36.2292 189.121 35.7656 188.761 35.4583C188.397 35.1563 187.897 35 187.261 35C186.522 35 185.793 35.2292 185.074 35.6875C184.366 36.1354 183.73 36.7604 183.178 37.5625C182.636 38.3698 182.246 39.3021 182.011 40.3542Z" fill="#29699D"/>
<path d="M202.317 62.6042C199.609 62.6042 197.489 62.1094 195.963 61.125C194.453 60.151 193.692 58.8021 193.692 57.0833C193.692 55.75 194.146 54.6042 195.047 53.6458C195.937 52.6875 197.328 51.8958 199.234 51.2708C198.744 50.9792 198.38 50.6198 198.13 50.1875C197.89 49.7448 197.776 49.2448 197.776 48.6875C197.776 47.7604 198.067 46.9583 198.651 46.2917C199.234 45.625 200.182 44.9896 201.505 44.375C200.656 43.7396 200.031 43.0104 199.63 42.1875C199.224 41.3698 199.026 40.3698 199.026 39.1875C199.026 37.9375 199.218 36.8073 199.609 35.7917C200.01 34.7656 200.588 33.8906 201.338 33.1667C202.13 32.3906 203.093 31.7917 204.234 31.375C205.385 30.9583 206.692 30.75 208.151 30.75C208.677 30.75 209.213 30.7917 209.755 30.875C210.307 30.9479 210.859 31.0573 211.401 31.2083H219.109L218.422 34.4375L215.026 35.25C215.119 35.5833 215.198 35.9479 215.255 36.3333C215.307 36.7083 215.338 37.1146 215.338 37.5417C215.338 38.7813 215.14 39.8958 214.755 40.8958C214.38 41.8854 213.828 42.7396 213.109 43.4583C212.359 44.2083 211.422 44.7865 210.297 45.1875C209.182 45.5937 207.932 45.7917 206.547 45.7917C206.172 45.7917 205.817 45.7813 205.484 45.75C205.161 45.7083 204.869 45.6615 204.609 45.6042C204.067 45.7708 203.656 45.9792 203.38 46.2292C203.114 46.4792 202.984 46.7813 202.984 47.125C202.984 47.4167 203.078 47.6615 203.276 47.8542C203.453 48.0365 203.713 48.1823 204.047 48.2917C204.38 48.3906 204.797 48.4687 205.297 48.5208L207.984 48.875C209.401 49.0573 210.552 49.3646 211.442 49.7917C212.328 50.2083 212.989 50.7708 213.422 51.4792C213.849 52.1875 214.067 53.0625 214.067 54.1042C214.067 55.5313 213.786 56.7813 213.234 57.8542C212.692 58.9219 211.885 59.8229 210.817 60.5625C209.828 61.2396 208.619 61.75 207.192 62.0833C205.76 62.4271 204.135 62.6042 202.317 62.6042ZM202.672 58.6042C203.739 58.6042 204.677 58.5104 205.484 58.3333C206.286 58.151 206.927 57.8854 207.401 57.5417C207.802 57.25 208.099 56.9167 208.297 56.5417C208.505 56.1667 208.609 55.7344 208.609 55.25C208.609 55.0417 208.578 54.8594 208.526 54.7083C208.468 54.5521 208.385 54.4219 208.276 54.3125C208.026 54.0469 207.682 53.8542 207.255 53.7292C206.838 53.6042 206.328 53.5052 205.734 53.4375L203.067 53.125C202.161 53.2344 201.401 53.4375 200.776 53.7292C200.151 54.0208 199.677 54.3854 199.359 54.8333C199.036 55.276 198.88 55.7813 198.88 56.3542C198.88 57.1146 199.192 57.6771 199.817 58.0417C200.453 58.4167 201.406 58.6042 202.672 58.6042ZM206.588 42.0417C207.239 42.0417 207.807 41.8125 208.297 41.3542C208.797 40.8958 209.177 40.2708 209.442 39.4792C209.718 38.6875 209.859 37.7865 209.859 36.7708C209.859 36.3542 209.807 36 209.713 35.7083C209.614 35.4063 209.474 35.1615 209.297 34.9792C209.14 34.8021 208.948 34.6771 208.713 34.6042C208.489 34.5208 208.234 34.4792 207.942 34.4792C207.427 34.4792 206.963 34.6198 206.547 34.8958C206.14 35.1615 205.797 35.5313 205.505 36C205.213 36.474 204.984 37.0313 204.817 37.6667C204.651 38.2917 204.567 38.974 204.567 39.7083C204.567 39.9479 204.578 40.1615 204.609 40.3542C204.651 40.5521 204.698 40.7396 204.755 40.9167C205.031 41.6667 205.64 42.0417 206.588 42.0417Z" fill="#29699D"/>
<path d="M227.979 53.3958C226.271 53.3958 224.76 53.0885 223.458 52.4792C222.166 51.8542 221.151 50.9167 220.416 49.6667C219.692 48.4167 219.333 46.849 219.333 44.9583C219.333 43.125 219.588 41.3646 220.104 39.6667C220.63 37.974 221.406 36.4583 222.437 35.125C223.479 33.7813 224.755 32.7187 226.271 31.9375C227.797 31.1458 229.552 30.75 231.541 30.75C234 30.75 235.833 31.3073 237.041 32.4167C238.26 33.5313 238.875 34.9583 238.875 36.7083C238.875 37.8646 238.614 38.9115 238.104 39.8542C237.588 40.7865 236.812 41.5833 235.771 42.25C234.729 42.9167 233.416 43.4323 231.833 43.7917C230.26 44.1563 228.416 44.3333 226.291 44.3333H225.291C225.276 44.4896 225.26 44.625 225.25 44.75C225.25 44.8646 225.25 44.9896 225.25 45.125C225.25 46.3073 225.588 47.2448 226.271 47.9375C226.948 48.6198 227.906 48.9583 229.146 48.9583C230.297 48.9583 231.338 48.8281 232.271 48.5625C233.213 48.3021 234.317 47.8698 235.583 47.2708V51.7083C234.442 52.2656 233.276 52.6875 232.083 52.9792C230.901 53.2552 229.531 53.3958 227.979 53.3958ZM225.937 40.3542H226.812C228.323 40.3542 229.552 40.1979 230.5 39.875C231.442 39.5573 232.13 39.1354 232.562 38.6042C233.005 38.0625 233.229 37.4792 233.229 36.8542C233.229 36.2292 233.047 35.7656 232.687 35.4583C232.323 35.1563 231.823 35 231.187 35C230.448 35 229.718 35.2292 229 35.6875C228.291 36.1354 227.656 36.7604 227.104 37.5625C226.562 38.3698 226.172 39.3021 225.937 40.3542Z" fill="#29699D"/>
<path d="M251.301 53L257.321 24.4375H264.342C267.202 24.4375 269.457 25.0573 271.113 26.2917C272.78 27.5313 273.613 29.5208 273.613 32.2708C273.613 33.7865 273.342 35.1146 272.801 36.25C272.259 37.375 271.514 38.3281 270.571 39.1042C269.623 39.8698 268.54 40.4583 267.321 40.875L272.426 53H265.946L261.905 42.0417H259.571L257.259 53H251.301ZM260.613 37.125H262.134C262.978 37.125 263.738 37.0365 264.405 36.8542C265.082 36.6615 265.655 36.375 266.113 36C266.582 35.625 266.936 35.1615 267.176 34.6042C267.426 34.0365 267.551 33.3698 267.551 32.6042C267.551 31.5365 267.238 30.7396 266.613 30.2083C265.988 29.6667 265.014 29.3958 263.696 29.3958H262.259L260.613 37.125Z" fill="#29699D"/>
<path d="M285.01 53.3958C283.302 53.3958 281.791 53.0885 280.489 52.4792C279.198 51.8542 278.182 50.9167 277.448 49.6667C276.724 48.4167 276.364 46.849 276.364 44.9583C276.364 43.125 276.619 41.3646 277.135 39.6667C277.661 37.974 278.437 36.4583 279.468 35.125C280.51 33.7813 281.786 32.7187 283.302 31.9375C284.828 31.1458 286.583 30.75 288.573 30.75C291.031 30.75 292.864 31.3073 294.073 32.4167C295.291 33.5313 295.906 34.9583 295.906 36.7083C295.906 37.8646 295.646 38.9115 295.135 39.8542C294.619 40.7865 293.843 41.5833 292.802 42.25C291.76 42.9167 290.448 43.4323 288.864 43.7917C287.291 44.1563 285.448 44.3333 283.323 44.3333H282.323C282.307 44.4896 282.291 44.625 282.281 44.75C282.281 44.8646 282.281 44.9896 282.281 45.125C282.281 46.3073 282.619 47.2448 283.302 47.9375C283.979 48.6198 284.937 48.9583 286.177 48.9583C287.328 48.9583 288.369 48.8281 289.302 48.5625C290.244 48.3021 291.349 47.8698 292.614 47.2708V51.7083C291.474 52.2656 290.307 52.6875 289.114 52.9792C287.932 53.2552 286.562 53.3958 285.01 53.3958ZM282.968 40.3542H283.843C285.354 40.3542 286.583 40.1979 287.531 39.875C288.474 39.5573 289.161 39.1354 289.593 38.6042C290.036 38.0625 290.26 37.4792 290.26 36.8542C290.26 36.2292 290.078 35.7656 289.718 35.4583C289.354 35.1563 288.854 35 288.218 35C287.479 35 286.75 35.2292 286.031 35.6875C285.323 36.1354 284.687 36.7604 284.135 37.5625C283.593 38.3698 283.203 39.3021 282.968 40.3542Z" fill="#29699D"/>
<path d="M306.774 53.3958C305.274 53.3958 303.905 53.125 302.67 52.5833C301.431 52.0417 300.451 51.1823 299.733 50C299.009 48.8229 298.649 47.2708 298.649 45.3542C298.649 43.7865 298.806 42.2813 299.129 40.8333C299.462 39.3906 299.946 38.0573 300.587 36.8333C301.222 35.6146 302.009 34.5521 302.941 33.6458C303.884 32.7292 304.962 32.0208 306.17 31.5208C307.389 31.0104 308.738 30.75 310.212 30.75C311.514 30.75 312.681 30.875 313.712 31.125C314.754 31.375 315.722 31.724 316.629 32.1667L314.837 36.625C314.129 36.3333 313.431 36.0781 312.754 35.8542C312.087 35.6354 311.321 35.5208 310.462 35.5208C309.53 35.5208 308.701 35.7917 307.983 36.3333C307.259 36.8646 306.649 37.5781 306.149 38.4792C305.649 39.3698 305.264 40.3698 305.004 41.4792C304.738 42.5937 304.608 43.724 304.608 44.875C304.608 45.6979 304.738 46.3906 305.004 46.9583C305.28 47.5156 305.67 47.9375 306.17 48.2292C306.67 48.5104 307.274 48.6458 307.983 48.6458C308.967 48.6458 309.884 48.4948 310.733 48.1875C311.576 47.8854 312.446 47.5 313.337 47.0417V51.8542C312.431 52.3281 311.451 52.7031 310.399 52.9792C309.342 53.2552 308.134 53.3958 306.774 53.3958Z" fill="#29699D"/>
<path d="M316.945 52.9993L321.57 31.166H327.445L322.82 52.9993H316.945ZM325.445 28.4577C324.612 28.4577 323.909 28.2806 323.341 27.916C322.784 27.541 322.508 26.916 322.508 26.041C322.508 25.291 322.643 24.666 322.924 24.166C323.2 23.6556 323.601 23.265 324.133 22.9993C324.674 22.7389 325.32 22.6035 326.07 22.6035C326.846 22.6035 327.518 22.7806 328.091 23.1243C328.674 23.4577 328.966 24.0723 328.966 24.9577C328.966 25.9993 328.679 26.8483 328.112 27.4993C327.539 28.14 326.653 28.4577 325.445 28.4577Z" fill="#29699D"/>
<path d="M327.216 62.6038C326.591 62.6038 325.976 62.5518 325.362 62.458C324.737 62.3591 324.226 62.2497 323.82 62.1247V57.3955C324.237 57.5309 324.622 57.6351 324.966 57.708C325.315 57.7757 325.674 57.8122 326.049 57.8122C326.857 57.8122 327.56 57.5466 328.153 57.0205C328.747 56.4893 329.174 55.6455 329.424 54.4788L333.403 35.6455H330.216L330.799 32.8122L334.383 31.1663L334.737 29.5205C335.013 28.1872 335.388 27.0726 335.862 26.1663C336.346 25.2497 336.914 24.5205 337.57 23.9788C338.237 23.4268 338.997 23.0205 339.862 22.7705C340.737 22.5205 341.705 22.3955 342.778 22.3955C343.679 22.3955 344.508 22.4788 345.258 22.6455C346.018 22.8122 346.721 23.0518 347.362 23.3538L345.799 27.7288C345.424 27.5622 345.028 27.4268 344.612 27.3122C344.195 27.1872 343.726 27.1247 343.216 27.1247C342.466 27.1247 341.862 27.3903 341.403 27.9163C340.955 28.432 340.653 29.1143 340.487 29.958L340.258 31.1663H344.528L343.57 35.6455H339.278L335.091 55.3538C334.81 56.6872 334.367 57.9007 333.758 58.9997C333.159 60.1091 332.325 60.9841 331.258 61.6247C330.2 62.2757 328.851 62.6038 327.216 62.6038Z" fill="#29699D"/>
<path d="M353.409 53.3958C351.7 53.3958 350.19 53.0885 348.888 52.4792C347.596 51.8542 346.58 50.9167 345.846 49.6667C345.122 48.4167 344.763 46.849 344.763 44.9583C344.763 43.125 345.018 41.3646 345.534 39.6667C346.06 37.974 346.836 36.4583 347.867 35.125C348.909 33.7813 350.185 32.7187 351.7 31.9375C353.226 31.1458 354.981 30.75 356.971 30.75C359.429 30.75 361.263 31.3073 362.471 32.4167C363.69 33.5313 364.304 34.9583 364.304 36.7083C364.304 37.8646 364.044 38.9115 363.534 39.8542C363.018 40.7865 362.242 41.5833 361.2 42.25C360.159 42.9167 358.846 43.4323 357.263 43.7917C355.69 44.1563 353.846 44.3333 351.721 44.3333H350.721C350.705 44.4896 350.69 44.625 350.679 44.75C350.679 44.8646 350.679 44.9896 350.679 45.125C350.679 46.3073 351.018 47.2448 351.7 47.9375C352.377 48.6198 353.336 48.9583 354.575 48.9583C355.726 48.9583 356.768 48.8281 357.7 48.5625C358.643 48.3021 359.747 47.8698 361.013 47.2708V51.7083C359.872 52.2656 358.705 52.6875 357.513 52.9792C356.33 53.2552 354.961 53.3958 353.409 53.3958ZM351.367 40.3542H352.242C353.752 40.3542 354.981 40.1979 355.929 39.875C356.872 39.5573 357.56 39.1354 357.992 38.6042C358.435 38.0625 358.659 37.4792 358.659 36.8542C358.659 36.2292 358.476 35.7656 358.117 35.4583C357.752 35.1563 357.252 35 356.617 35C355.877 35 355.148 35.2292 354.429 35.6875C353.721 36.1354 353.086 36.7604 352.534 37.5625C351.992 38.3698 351.601 39.3021 351.367 40.3542Z" fill="#29699D"/>
</svg>
