<svg width="317" height="85" viewBox="0 0 317 85" fill="none" xmlns="http://www.w3.org/2000/svg">
<path d="M25.0812 3.44862C36.976 -1.76719 56.5754 -1.59885 64.28 7.65441C66.2923 10.1769 69.3068 15.2243 66.458 15.2243C64.6167 15.2243 62.2703 11.8576 60.7631 11.8576C60.429 11.8576 60.0923 12.026 60.0923 12.3626C60.0923 13.2043 61.2655 13.7093 61.2655 15.056C61.2655 15.3901 61.0972 15.5584 60.9314 15.5584C57.5803 15.5584 55.9047 7.99109 48.7025 5.80273C45.3513 0.926179 38.8173 1.26026 35.6345 5.46605C34.798 5.63439 34.1273 5.80272 33.2908 5.97106C32.9541 5.97106 31.4468 2.27027 25.0812 3.44862ZM45.183 5.12938C43.1733 3.95363 40.827 3.95363 38.8173 5.12938C33.4565 8.32517 35.6345 16.7368 42.0002 16.7368C48.3658 16.7368 50.3755 8.15683 45.183 5.12938Z" fill="#14B9EE"/>
<path d="M0.286804 37.4266C1.62831 24.9802 8.49639 13.8778 18.7156 6.98123C23.4057 4.96121 30.4421 4.62454 31.2786 6.47623C32.1177 8.662 26.2545 9.167 25.4154 10.682C25.2496 11.0187 25.2496 11.3554 25.4154 11.5237C26.0861 11.8578 27.091 11.187 28.2641 11.8578C28.4325 12.0261 28.5982 12.1944 28.4325 12.5311C26.7569 15.3902 19.3864 13.2045 14.0256 18.2519C8.32805 18.5886 5.14522 24.4752 7.15748 29.3543C6.82081 30.025 6.65247 30.8667 6.48672 31.5401C3.30389 31.8767 1.29423 34.3992 0.286804 37.4266ZM17.7108 20.9427C14.8621 19.2594 11.0085 20.101 9.16714 23.2968C5.14522 30.3617 15.8669 36.7533 19.8888 29.5226C21.7301 26.4926 20.7253 22.6235 17.7108 20.9427Z" fill="#9946DD"/>
<path d="M17.04 75.9497C6.82072 68.3797 0.789139 56.604 0.120978 44.8283C-0.883855 43.8209 4.64272 30.5302 6.65239 34.231C7.65981 35.9143 5.81589 39.6151 6.48664 40.7909C6.65239 41.1275 6.98906 41.2959 7.1574 41.1275C7.82556 40.7909 7.65981 39.4468 8.83039 38.7734C8.99872 38.6051 9.33281 38.6051 9.50114 38.9418C11.1767 41.8009 5.48181 47.185 7.32314 54.4183C7.32314 54.584 7.15739 54.4183 6.82072 55.4257C5.31348 60.3048 8.49631 65.3497 13.5231 66.023C13.6888 66.023 13.1864 65.6864 15.0303 67.7064C13.8571 70.5655 15.0303 73.593 17.04 75.9497ZM11.5108 52.5666C7.15739 55.089 7.49148 61.1465 11.6791 63.5006C17.2083 66.5281 23.2373 60.3048 20.0545 54.9207C18.3789 51.7249 14.5279 50.7175 11.5108 52.5666Z" fill="#FA52B9"/>
<path d="M58.7534 80.6569C47.1926 85.7044 33.9589 85.1994 23.2372 79.8152C22.9031 80.1519 16.3691 73.592 16.3691 70.0595C16.3691 69.3862 16.7058 68.8812 17.5423 68.8812C19.3862 68.8812 21.73 72.2479 23.2372 72.2479C23.5739 72.2479 23.908 72.0796 23.908 71.7429C23.908 70.9012 22.7348 70.3962 22.7348 69.0495C22.7348 68.7155 22.9031 68.5471 23.0715 68.5471C26.4201 68.5471 28.0956 76.1144 35.3004 78.3028C38.649 83.1793 45.183 82.8453 48.3658 78.6395C49.2049 78.4711 49.8731 78.3028 50.7121 78.1345C50.8805 78.1345 52.5535 82.0036 58.7534 80.6569ZM42.0001 67.5371C35.9686 67.5371 33.4565 75.2754 38.3149 78.8078C38.4832 78.8078 41.4977 81.3302 45.183 79.1445C45.3513 79.1445 48.2001 77.2928 48.2001 73.7603C48.2001 70.2279 45.3513 67.5371 42.0001 67.5371Z" fill="#FF586F"/>
<path d="M83.7137 46.6797C82.3722 59.2945 75.3383 70.3968 65.1191 77.1251C60.0923 79.3134 51.0462 79.4818 52.7218 76.6201C53.7267 74.9393 57.7486 74.771 58.4167 73.4243C58.5851 73.0876 58.5851 72.7509 58.4167 72.5826C57.7486 72.2485 56.7437 72.9193 55.5706 72.2485C55.4022 72.0802 55.2339 71.9119 55.4022 71.5752C57.0778 68.7161 64.4483 70.9018 69.8092 65.686C75.6724 65.1836 78.6869 59.4628 76.6772 54.5837C77.0139 53.9129 77.1797 53.0713 77.348 52.3979C80.5308 52.3979 82.7088 49.7071 83.7137 46.6797ZM63.7776 54.752C60.5947 60.3045 66.7947 66.3594 72.1555 63.3319C76.5089 60.9778 76.5089 54.752 72.3212 52.3979C69.3067 50.7171 65.6215 51.7246 63.7776 54.752Z" fill="#FBEE42"/>
<path d="M63.7777 29.3545C60.5949 23.9704 66.6265 17.7472 72.1556 20.7746C74.3336 21.953 75.6725 24.3071 75.3385 26.8295C75.3385 32.2136 67.1289 35.0728 63.7777 29.3545ZM66.7948 8.15723C68.9728 10.5139 69.9776 13.7097 68.6361 16.4005C69.1385 16.9055 69.6409 17.5788 70.1434 18.0838C74.836 18.0838 79.0237 24.6437 76.3433 29.6886C78.1846 36.9219 72.4897 42.306 74.1653 45.1651C74.3336 45.5018 74.4994 45.3334 74.836 45.3334C76.0066 44.6601 75.8409 43.316 76.509 42.9793C76.8457 42.811 77.014 42.9793 77.1798 43.316C78.0189 44.6601 75.5042 50.0442 77.8505 50.5493C80.865 51.22 84.2162 39.9519 83.7138 39.4469C83.2114 27.5028 77.1798 15.8955 66.7948 8.15723Z" fill="#21E4C7"/>
<path d="M107.389 40.0748H108.912C110.334 40.0748 111.398 39.7951 112.102 39.2358C112.807 38.6712 113.159 37.8528 113.159 36.7807C113.159 35.6981 112.861 34.8953 112.268 34.3773C111.68 33.8594 110.756 33.6004 109.492 33.6004H107.389V40.0748ZM117.831 36.6149C117.831 38.9638 117.096 40.7585 115.625 42.0016C114.159 43.2396 112.077 43.8559 109.378 43.8559H107.389V51.6149H102.769V29.8193H109.73C112.374 29.8193 114.384 30.3891 115.759 31.5286C117.14 32.6629 117.831 34.3566 117.831 36.6149Z" fill="#29699D"/>
<path d="M130.893 34.626C131.507 34.626 132.017 34.6726 132.426 34.7606L132.085 39.0286C131.712 38.9328 131.261 38.8836 130.738 38.8836C129.288 38.8836 128.153 39.2565 127.34 40.0023C126.532 40.7482 126.128 41.7919 126.128 43.1308V51.6149H121.58V34.9471H125.03L125.703 37.7441H125.921C126.439 36.8117 127.135 36.0607 128.013 35.4858C128.896 34.9134 129.857 34.626 130.893 34.626Z" fill="#29699D"/>
<path d="M139.072 43.2447C139.072 44.897 139.342 46.1453 139.88 46.9947C140.424 47.839 141.31 48.2586 142.532 48.2586C143.747 48.2586 144.62 47.8416 145.153 47.0051C145.684 46.1634 145.951 44.91 145.951 43.2447C145.951 41.6028 145.681 40.3701 145.143 39.5465C144.604 38.7178 143.724 38.3035 142.501 38.3035C141.292 38.3035 140.419 38.7152 139.88 39.5362C139.342 40.352 139.072 41.5873 139.072 43.2447ZM150.602 43.2447C150.602 45.9588 149.882 48.0824 148.447 49.6156C147.018 51.1487 145.024 51.9153 142.47 51.9153C140.875 51.9153 139.461 51.5683 138.233 50.869C137.011 50.1646 136.071 49.1572 135.416 47.8442C134.758 46.5338 134.431 45.0006 134.431 43.2447C134.431 40.5255 135.141 38.407 136.565 36.8946C137.987 35.3822 139.986 34.626 142.563 34.626C144.164 34.626 145.578 34.9756 146.8 35.6722C148.023 36.3715 148.96 37.3711 149.618 38.6764C150.273 39.9765 150.602 41.4992 150.602 43.2447Z" fill="#29699D"/>
<path d="M161.376 48.2902C162.168 48.2902 163.126 48.1193 164.245 47.7723V51.1493C163.111 51.6595 161.72 51.9159 160.07 51.9159C158.247 51.9159 156.921 51.4575 156.092 50.5381C155.264 49.6136 154.849 48.2332 154.849 46.3945V38.3558H152.674V36.4394L155.17 34.9166L156.486 31.3945H159.397V34.9477H164.059V38.3558H159.397V46.3945C159.397 47.0445 159.576 47.5236 159.936 47.8344C160.301 48.14 160.78 48.2902 161.376 48.2902Z" fill="#29699D"/>
<path d="M174.517 37.8684C173.548 37.8684 172.792 38.1766 172.248 38.7903C171.702 39.3989 171.388 40.2665 171.305 41.3905H177.687C177.671 40.2665 177.378 39.3989 176.806 38.7903C176.239 38.1766 175.475 37.8684 174.517 37.8684ZM175.159 51.9153C172.471 51.9153 170.373 51.1772 168.861 49.6985C167.348 48.2145 166.592 46.1142 166.592 43.4001C166.592 40.6032 167.289 38.4433 168.684 36.9153C170.086 35.39 172.02 34.626 174.486 34.626C176.84 34.626 178.673 35.2993 179.986 36.646C181.297 37.9875 181.954 39.8418 181.954 42.2088V44.4153H171.202C171.248 45.7076 171.632 46.715 172.352 47.4402C173.069 48.1653 174.074 48.5279 175.366 48.5279C176.366 48.5279 177.314 48.4243 178.204 48.2171C179.101 48.0099 180.038 47.6759 181.012 47.2123V50.7344C180.217 51.1358 179.367 51.4336 178.463 51.6253C177.557 51.8169 176.456 51.9153 175.159 51.9153Z" fill="#29699D"/>
<path d="M200.161 34.9471V37.2572L197.55 37.9305C198.027 38.6764 198.265 39.5103 198.265 40.4271C198.265 42.2244 197.639 43.6229 196.39 44.6225C195.147 45.617 193.417 46.1142 191.2 46.1142L190.382 46.0728L189.709 45.9899C189.237 46.3499 189.004 46.7461 189.004 47.1812C189.004 47.839 189.838 48.1653 191.511 48.1653H194.35C196.173 48.1653 197.563 48.559 198.524 49.3463C199.482 50.1335 199.964 51.2886 199.964 52.8062C199.964 54.7537 199.148 56.261 197.519 57.3331C195.896 58.4105 193.565 58.9491 190.527 58.9491C188.199 58.9491 186.42 58.5451 185.192 57.7371C183.97 56.9291 183.359 55.7922 183.359 54.329C183.359 53.3267 183.669 52.4877 184.291 51.8117C184.918 51.1358 185.84 50.6515 187.057 50.3614C186.585 50.162 186.176 49.8383 185.824 49.3877C185.477 48.9319 185.306 48.4528 185.306 47.9478C185.306 47.3133 185.487 46.785 185.855 46.3628C186.228 45.9355 186.759 45.5186 187.45 45.1094C186.58 44.7365 185.889 44.133 185.379 43.2965C184.866 42.4626 184.612 41.4785 184.612 40.3442C184.612 38.521 185.202 37.1122 186.383 36.1177C187.564 35.1232 189.253 34.626 191.449 34.626C191.918 34.626 192.475 34.6726 193.117 34.7606C193.759 34.8435 194.168 34.9057 194.35 34.9471H200.161ZM187.295 53.9664C187.295 54.5931 187.595 55.0878 188.196 55.4478C188.797 55.8052 189.639 55.9864 190.724 55.9864C192.353 55.9864 193.63 55.7611 194.557 55.3131C195.481 54.8625 195.945 54.2513 195.945 53.4795C195.945 52.8502 195.668 52.4151 195.116 52.1743C194.57 51.9386 193.728 51.8221 192.588 51.8221H190.227C189.39 51.8221 188.693 52.0189 188.134 52.4125C187.575 52.8062 187.295 53.3242 187.295 53.9664ZM188.942 40.4064C188.942 41.3128 189.149 42.0276 189.564 42.5507C189.978 43.0764 190.605 43.338 191.449 43.338C192.304 43.338 192.93 43.0764 193.324 42.5507C193.723 42.0276 193.925 41.3128 193.925 40.4064C193.925 38.3967 193.099 37.3919 191.449 37.3919C189.776 37.3919 188.942 38.3967 188.942 40.4064Z" fill="#29699D"/>
<path d="M209.808 37.8684C208.84 37.8684 208.083 38.1766 207.54 38.7903C206.993 39.3989 206.68 40.2665 206.597 41.3905H212.978C212.963 40.2665 212.67 39.3989 212.098 38.7903C211.53 38.1766 210.766 37.8684 209.808 37.8684ZM210.451 51.9153C207.762 51.9153 205.665 51.1772 204.152 49.6985C202.64 48.2145 201.884 46.1142 201.884 43.4001C201.884 40.6032 202.58 38.4433 203.976 36.9153C205.377 35.39 207.312 34.626 209.777 34.626C212.131 34.626 213.965 35.2993 215.278 36.646C216.588 37.9875 217.246 39.8418 217.246 42.2088V44.4153H206.493C206.54 45.7076 206.923 46.715 207.643 47.4402C208.361 48.1653 209.365 48.5279 210.658 48.5279C211.657 48.5279 212.605 48.4243 213.496 48.2171C214.392 48.0099 215.33 47.6759 216.303 47.2123V50.7344C215.508 51.1358 214.659 51.4336 213.755 51.6253C212.849 51.8169 211.748 51.9153 210.451 51.9153Z" fill="#29699D"/>
<path d="M232.594 39.4938H234.086C235.549 39.4938 236.627 39.2529 237.318 38.7686C238.015 38.2792 238.364 37.5126 238.364 36.4689C238.364 35.433 238.007 34.6975 237.297 34.2624C236.585 33.8222 235.484 33.5994 233.993 33.5994H232.594V39.4938ZM232.594 43.2438V51.6139H227.974V29.8184H234.324C237.287 29.8184 239.478 30.357 240.902 31.4344C242.324 32.5117 243.036 34.1485 243.036 36.3446C243.036 37.6291 242.679 38.7738 241.969 39.7735C241.265 40.7679 240.265 41.55 238.976 42.1146C242.254 47.0196 244.393 50.1844 245.388 51.6139H240.26L235.06 43.2438H232.594Z" fill="#29699D"/>
<path d="M254.679 37.8684C253.71 37.8684 252.954 38.1766 252.41 38.7903C251.864 39.3989 251.55 40.2665 251.468 41.3905H257.849C257.833 40.2665 257.541 39.3989 256.968 38.7903C256.401 38.1766 255.637 37.8684 254.679 37.8684ZM255.321 51.9153C252.633 51.9153 250.535 51.1772 249.023 49.6985C247.51 48.2145 246.754 46.1142 246.754 43.4001C246.754 40.6032 247.451 38.4433 248.847 36.9153C250.248 35.39 252.182 34.626 254.648 34.626C257.002 34.626 258.835 35.2993 260.148 36.646C261.459 37.9875 262.117 39.8418 262.117 42.2088V44.4153H251.364C251.411 45.7076 251.794 46.715 252.514 47.4402C253.231 48.1653 254.236 48.5279 255.528 48.5279C256.528 48.5279 257.476 48.4243 258.367 48.2171C259.263 48.0099 260.2 47.6759 261.174 47.2123V50.7344C260.379 51.1358 259.53 51.4336 258.626 51.6253C257.719 51.8169 256.619 51.9153 255.321 51.9153Z" fill="#29699D"/>
<path d="M272.585 51.9153C267.39 51.9153 264.795 49.0666 264.795 43.3691C264.795 40.5384 265.5 38.3734 266.909 36.8739C268.323 35.377 270.35 34.626 272.989 34.626C274.916 34.626 276.646 35.0067 278.179 35.7655L276.833 39.2876C276.113 38.9975 275.447 38.7644 274.833 38.5832C274.217 38.3967 273.603 38.3035 272.989 38.3035C270.62 38.3035 269.436 39.9816 269.436 43.338C269.436 46.5985 270.62 48.2275 272.989 48.2275C273.859 48.2275 274.668 48.1135 275.413 47.8856C276.159 47.6525 276.905 47.2848 277.651 46.7876V50.6722C276.918 51.1436 276.175 51.4673 275.424 51.646C274.67 51.8247 273.725 51.9153 272.585 51.9153Z" fill="#29699D"/>
<path d="M281.324 30.6374C281.324 29.1534 282.148 28.4102 283.8 28.4102C285.442 28.4102 286.265 29.1534 286.265 30.6374C286.265 31.3418 286.058 31.8908 285.644 32.2845C285.235 32.6781 284.621 32.8749 283.8 32.8749C282.148 32.8749 281.324 32.1291 281.324 30.6374ZM286.058 51.6145H281.51V34.9467H286.058V51.6145Z" fill="#29699D"/>
<path d="M300.049 38.3546H296.112V51.6143H291.564V38.3546H289.058V36.1689L291.564 34.9465V33.7241C291.564 31.8258 292.031 30.4377 292.963 29.5597C293.895 28.6844 295.39 28.2441 297.448 28.2441C299.023 28.2441 300.422 28.4798 301.644 28.9486L300.484 32.2842C299.564 32.0019 298.717 31.8595 297.946 31.8595C297.296 31.8595 296.827 32.0537 296.537 32.4396C296.252 32.8203 296.112 33.3071 296.112 33.9002V34.9465H300.049V38.3546Z" fill="#29699D"/>
<path d="M309.562 37.8684C308.594 37.8684 307.837 38.1766 307.294 38.7903C306.747 39.3989 306.434 40.2665 306.351 41.3905H312.732C312.717 40.2665 312.424 39.3989 311.852 38.7903C311.284 38.1766 310.52 37.8684 309.562 37.8684ZM310.204 51.9153C307.516 51.9153 305.419 51.1772 303.906 49.6985C302.394 48.2145 301.637 46.1142 301.637 43.4001C301.637 40.6032 302.334 38.4433 303.73 36.9153C305.131 35.39 307.066 34.626 309.531 34.626C311.885 34.626 313.719 35.2993 315.032 36.646C316.342 37.9875 317 39.8418 317 42.2088V44.4153H306.247C306.294 45.7076 306.677 46.715 307.397 47.4402C308.114 48.1653 309.119 48.5279 310.412 48.5279C311.411 48.5279 312.359 48.4243 313.25 48.2171C314.146 48.0099 315.084 47.6759 316.057 47.2123V50.7344C315.262 51.1358 314.413 51.4336 313.509 51.6253C312.603 51.8169 311.502 51.9153 310.204 51.9153Z" fill="#29699D"/>
</svg>
