<svg width="258" height="69" viewBox="0 0 258 69" fill="none" xmlns="http://www.w3.org/2000/svg">
<path d="M20.4131 2.80676C30.0941 -1.43828 46.0456 -1.30127 52.3162 6.22978C53.954 8.28274 56.4074 12.3908 54.0889 12.3908C52.5903 12.3908 50.6806 9.65068 49.4539 9.65068C49.182 9.65068 48.908 9.78769 48.908 10.0617C48.908 10.7467 49.8628 11.1577 49.8628 12.2538C49.8628 12.5257 49.7258 12.6627 49.5909 12.6627C46.8635 12.6627 45.4997 6.50379 39.638 4.72272C36.9106 0.753799 31.5927 1.0257 29.0022 4.44871C28.3214 4.58572 27.7755 4.72272 27.0947 4.85973C26.8207 4.85973 25.594 1.84773 20.4131 2.80676ZM36.7736 4.1747C35.1379 3.21778 33.2283 3.21778 31.5927 4.1747C27.2296 6.77569 29.0022 13.6217 34.1831 13.6217C39.364 13.6217 40.9996 6.63868 36.7736 4.1747Z" fill="#14B9EE"/>
<path d="M0.233398 30.4602C1.32522 20.3303 6.91502 11.2943 15.2323 5.68134C19.0494 4.03729 24.7762 3.76328 25.457 5.27033C26.14 7.04928 21.368 7.4603 20.6851 8.69334C20.5502 8.96735 20.5502 9.24136 20.6851 9.37837C21.231 9.65027 22.0488 9.10436 23.0036 9.65027C23.1406 9.78727 23.2755 9.92428 23.1406 10.1983C21.7769 12.5253 15.7782 10.7463 11.4151 14.8543C6.77801 15.1284 4.18757 19.9193 5.8253 23.8903C5.55129 24.4363 5.41429 25.1213 5.27939 25.6693C2.68895 25.9433 1.05332 27.9963 0.233398 30.4602ZM14.4145 17.0443C12.0959 15.6743 8.95955 16.3593 7.46093 18.9603C4.18757 24.7103 12.9137 29.9122 16.1871 24.0273C17.6857 21.5613 16.8679 18.4123 14.4145 17.0443Z" fill="#9946DD"/>
<path d="M13.8685 61.8132C5.55125 55.6522 0.642265 46.0682 0.0984614 36.4842C-0.719352 35.6643 3.77862 24.8472 5.41425 27.8592C6.23417 29.2293 4.73344 32.2413 5.27935 33.1982C5.41425 33.4722 5.68826 33.6092 5.82526 33.4722C6.36907 33.1982 6.23417 32.1043 7.18688 31.5562C7.32389 31.4192 7.59579 31.4192 7.73279 31.6932C9.09652 34.0202 4.46154 38.4023 5.96016 44.2893C5.96016 44.4242 5.82526 44.2893 5.55125 45.1092C4.32453 49.0802 6.91498 53.1861 11.0062 53.7342C11.1411 53.7342 10.7321 53.4602 12.2329 55.1042C11.2781 57.4312 12.2329 59.8952 13.8685 61.8132ZM9.36842 42.7822C5.82526 44.8352 6.09717 49.7652 9.50542 51.6812C14.0055 54.1452 18.9124 49.0802 16.3219 44.6982C14.9582 42.0972 11.824 41.2773 9.36842 42.7822Z" fill="#FA52B9"/>
<path d="M47.8182 65.6457C38.4091 69.7538 27.6385 69.3427 18.9123 64.9607C18.6404 65.2347 13.3225 59.8957 13.3225 57.0207C13.3225 56.4727 13.5965 56.0617 14.2773 56.0617C15.7781 56.0617 17.6856 58.8018 18.9123 58.8018C19.1863 58.8018 19.4582 58.6648 19.4582 58.3908C19.4582 57.7058 18.5034 57.2947 18.5034 56.1987C18.5034 55.9268 18.6404 55.7898 18.7774 55.7898C21.5028 55.7898 22.8665 61.9487 28.7303 63.7298C31.4556 67.6987 36.7735 67.4268 39.364 64.0038C40.0469 63.8668 40.5907 63.7298 41.2736 63.5928C41.4106 63.5928 42.7722 66.7418 47.8182 65.6457ZM34.1831 54.9678C29.2741 54.9678 27.2296 61.2658 31.1837 64.1408C31.3207 64.1408 33.7742 66.1937 36.7735 64.4148C36.9105 64.4148 39.2291 62.9077 39.2291 60.0327C39.2291 57.1577 36.9105 54.9678 34.1831 54.9678Z" fill="#FF586F"/>
<path d="M68.1329 37.9912C67.0411 48.2581 61.3164 57.2941 52.9991 62.7701C48.908 64.5512 41.5455 64.6882 42.9092 62.3591C43.7271 60.9912 47.0004 60.8542 47.5442 59.7581C47.6812 59.4841 47.6812 59.2101 47.5442 59.0731C47.0004 58.8012 46.1826 59.3471 45.2278 58.8012C45.0908 58.6642 44.9538 58.5272 45.0908 58.2532C46.4545 55.9262 52.4532 57.7052 56.8163 53.4601C61.5883 53.0512 64.0417 48.3951 62.4061 44.4241C62.6801 43.8782 62.815 43.1932 62.952 42.6452C65.5424 42.6452 67.3151 40.4552 68.1329 37.9912ZM51.9073 44.5611C49.3169 49.0802 54.3629 54.0081 58.7259 51.5442C62.2691 49.6282 62.2691 44.5611 58.8608 42.6452C56.4074 41.2772 53.408 42.0971 51.9073 44.5611Z" fill="#FBEE42"/>
<path d="M51.9074 23.8907C49.317 19.5087 54.226 14.4437 58.726 16.9077C60.4987 17.8667 61.5884 19.7827 61.3165 21.8357C61.3165 26.2177 54.6349 28.5447 51.9074 23.8907ZM54.363 6.63867C56.1356 8.55674 56.9534 11.1577 55.8616 13.3477C56.2705 13.7587 56.6794 14.3067 57.0883 14.7177C60.9076 14.7177 64.3158 20.0567 62.1343 24.1626C63.6329 30.0496 58.9979 34.4317 60.3617 36.7587C60.4987 37.0327 60.6336 36.8957 60.9076 36.8957C61.8603 36.3476 61.7254 35.2537 62.2692 34.9797C62.5432 34.8427 62.6802 34.9797 62.8151 35.2537C63.498 36.3476 61.4514 40.7297 63.361 41.1407C65.8145 41.6866 68.5419 32.5157 68.133 32.1047C67.7241 22.3837 62.8151 12.9367 54.363 6.63867Z" fill="#21E4C7"/>
<path d="M87.4019 32.6153H88.6412C89.7984 32.6153 90.6647 32.3877 91.238 31.9324C91.8113 31.4729 92.098 30.8068 92.098 29.9342C92.098 29.0532 91.8556 28.3998 91.3729 27.9782C90.8944 27.5567 90.142 27.3459 89.1134 27.3459H87.4019V32.6153ZM95.9004 29.7993C95.9004 31.7111 95.3018 33.1718 94.1046 34.1835C92.9116 35.191 91.2169 35.6927 89.0206 35.6927H87.4019V42.0075H83.6416V24.2686H89.3073C91.4593 24.2686 93.0949 24.7323 94.2142 25.6597C95.3376 26.5829 95.9004 27.9614 95.9004 29.7993Z" fill="#29699D"/>
<path d="M106.531 28.1807C107.031 28.1807 107.446 28.2186 107.779 28.2903L107.501 31.7639C107.197 31.6859 106.831 31.6458 106.405 31.6458C105.225 31.6458 104.301 31.9494 103.64 32.5564C102.982 33.1634 102.653 34.0129 102.653 35.1026V42.0076H98.9519V28.442H101.759L102.307 30.7184H102.485C102.906 29.9596 103.473 29.3484 104.188 28.8804C104.906 28.4146 105.688 28.1807 106.531 28.1807Z" fill="#29699D"/>
<path d="M113.188 35.1953C113.188 36.5401 113.407 37.556 113.846 38.2474C114.289 38.9345 115.009 39.2759 116.004 39.2759C116.993 39.2759 117.703 38.9366 118.137 38.2558C118.569 37.5708 118.786 36.5506 118.786 35.1953C118.786 33.859 118.567 32.8557 118.129 32.1854C117.69 31.5109 116.974 31.1737 115.979 31.1737C114.995 31.1737 114.284 31.5088 113.846 32.177C113.407 32.8409 113.188 33.8463 113.188 35.1953ZM122.572 35.1953C122.572 37.4043 121.986 39.1326 120.818 40.3804C119.655 41.6282 118.032 42.2521 115.954 42.2521C114.655 42.2521 113.504 41.9697 112.505 41.4006C111.51 40.8273 110.745 40.0073 110.212 38.9387C109.677 37.8722 109.411 36.6244 109.411 35.1953C109.411 32.9822 109.989 31.258 111.148 30.0271C112.305 28.7961 113.932 28.1807 116.03 28.1807C117.332 28.1807 118.483 28.4652 119.478 29.0322C120.473 29.6013 121.236 30.4149 121.771 31.4772C122.304 32.5353 122.572 33.7747 122.572 35.1953Z" fill="#29699D"/>
<path d="M131.34 39.3009C131.985 39.3009 132.765 39.1618 133.676 38.8793V41.6279C132.753 42.0431 131.621 42.2517 130.278 42.2517C128.794 42.2517 127.715 41.8787 127.041 41.1304C126.366 40.3779 126.029 39.2545 126.029 37.758V31.2155H124.258V29.6557L126.29 28.4164L127.361 25.5498H129.73V28.4417H133.524V31.2155H129.73V37.758C129.73 38.287 129.875 38.677 130.168 38.9299C130.466 39.1786 130.856 39.3009 131.34 39.3009Z" fill="#29699D"/>
<path d="M142.036 30.8196C141.247 30.8196 140.632 31.0704 140.189 31.57C139.745 32.0653 139.49 32.7714 139.422 33.6862H144.616C144.603 32.7714 144.365 32.0653 143.899 31.57C143.437 31.0704 142.816 30.8196 142.036 30.8196ZM142.558 42.2521C140.371 42.2521 138.663 41.6514 137.432 40.4479C136.201 39.2401 135.586 37.5307 135.586 35.3218C135.586 33.0454 136.153 31.2875 137.289 30.0439C138.429 28.8025 140.004 28.1807 142.01 28.1807C143.926 28.1807 145.419 28.7287 146.487 29.8247C147.554 30.9165 148.089 32.4257 148.089 34.3522V36.148H139.338C139.376 37.1998 139.688 38.0197 140.274 38.6099C140.857 39.2001 141.675 39.4952 142.727 39.4952C143.541 39.4952 144.312 39.4108 145.037 39.2422C145.766 39.0736 146.529 38.8017 147.322 38.4244V41.291C146.675 41.6177 145.984 41.8601 145.248 42.016C144.51 42.172 143.614 42.2521 142.558 42.2521Z" fill="#29699D"/>
<path d="M162.907 28.442V30.3222L160.782 30.8702C161.17 31.4772 161.364 32.1559 161.364 32.9021C161.364 34.3649 160.854 35.503 159.838 36.3166C158.826 37.126 157.418 37.5307 155.614 37.5307L154.948 37.497L154.4 37.4295C154.017 37.7225 153.827 38.045 153.827 38.3991C153.827 38.9345 154.506 39.2001 155.867 39.2001H158.177C159.661 39.2001 160.793 39.5205 161.575 40.1612C162.355 40.802 162.747 41.742 162.747 42.9772C162.747 44.5622 162.083 45.7889 160.757 46.6616C159.436 47.5384 157.539 47.9768 155.066 47.9768C153.171 47.9768 151.723 47.648 150.724 46.9904C149.729 46.3328 149.232 45.4074 149.232 44.2166C149.232 43.4008 149.485 42.7179 149.991 42.1678C150.501 41.6177 151.251 41.2235 152.242 40.9875C151.858 40.8252 151.525 40.5617 151.239 40.1949C150.956 39.824 150.817 39.434 150.817 39.023C150.817 38.5066 150.965 38.0766 151.264 37.7331C151.567 37.3853 151.999 37.0459 152.562 36.7129C151.854 36.4094 151.291 35.9183 150.876 35.2375C150.459 34.5588 150.252 33.7578 150.252 32.8346C150.252 31.3507 150.733 30.2041 151.694 29.3947C152.655 28.5854 154.029 28.1807 155.817 28.1807C156.198 28.1807 156.651 28.2186 157.174 28.2903C157.697 28.3577 158.03 28.4083 158.177 28.442H162.907ZM152.436 43.9215C152.436 44.4315 152.68 44.8341 153.169 45.1271C153.658 45.418 154.343 45.5655 155.226 45.5655C156.552 45.5655 157.591 45.3821 158.346 45.0175C159.098 44.6508 159.476 44.1533 159.476 43.5252C159.476 43.013 159.25 42.6589 158.801 42.4629C158.356 42.2711 157.671 42.1762 156.744 42.1762H154.822C154.141 42.1762 153.574 42.3364 153.119 42.6568C152.663 42.9772 152.436 43.3987 152.436 43.9215ZM153.776 32.8852C153.776 33.6229 153.945 34.2047 154.282 34.6304C154.619 35.0583 155.129 35.2712 155.817 35.2712C156.512 35.2712 157.022 35.0583 157.343 34.6304C157.667 34.2047 157.832 33.6229 157.832 32.8852C157.832 31.2496 157.159 30.4318 155.817 30.4318C154.455 30.4318 153.776 31.2496 153.776 32.8852Z" fill="#29699D"/>
<path d="M170.759 30.8196C169.971 30.8196 169.355 31.0704 168.912 31.57C168.468 32.0653 168.213 32.7714 168.145 33.6862H173.339C173.326 32.7714 173.088 32.0653 172.622 31.57C172.161 31.0704 171.539 30.8196 170.759 30.8196ZM171.282 42.2521C169.094 42.2521 167.386 41.6514 166.155 40.4479C164.925 39.2401 164.309 37.5307 164.309 35.3218C164.309 33.0454 164.876 31.2875 166.012 30.0439C167.152 28.8025 168.727 28.1807 170.734 28.1807C172.65 28.1807 174.142 28.7287 175.21 29.8247C176.277 30.9165 176.812 32.4257 176.812 34.3522V36.148H168.061C168.099 37.1998 168.411 38.0197 168.997 38.6099C169.581 39.2001 170.398 39.4952 171.45 39.4952C172.264 39.4952 173.035 39.4108 173.76 39.2422C174.49 39.0736 175.253 38.8017 176.045 38.4244V41.291C175.398 41.6177 174.707 41.8601 173.971 42.016C173.233 42.172 172.338 42.2521 171.282 42.2521Z" fill="#29699D"/>
<path d="M189.304 32.1432H190.518C191.709 32.1432 192.586 31.9471 193.149 31.553C193.716 31.1546 194 30.5307 194 29.6813C194 28.8382 193.709 28.2396 193.132 27.8855C192.552 27.5272 191.656 27.3459 190.442 27.3459H189.304V32.1432ZM189.304 35.1952V42.0075H185.544V24.2686H190.712C193.123 24.2686 194.906 24.707 196.066 25.5838C197.223 26.4606 197.802 27.7927 197.802 29.5801C197.802 30.6256 197.512 31.5572 196.934 32.3708C196.361 33.1802 195.547 33.8167 194.497 34.2762C197.166 38.2683 198.907 40.844 199.716 42.0075H195.543L191.311 35.1952H189.304Z" fill="#29699D"/>
<path d="M207.278 30.8196C206.49 30.8196 205.874 31.0704 205.432 31.57C204.987 32.0653 204.732 32.7714 204.665 33.6862H209.858C209.845 32.7714 209.607 32.0653 209.141 31.57C208.68 31.0704 208.058 30.8196 207.278 30.8196ZM207.801 42.2521C205.613 42.2521 203.906 41.6514 202.675 40.4479C201.444 39.2401 200.828 37.5307 200.828 35.3218C200.828 33.0454 201.395 31.2875 202.531 30.0439C203.672 28.8025 205.246 28.1807 207.253 28.1807C209.169 28.1807 210.661 28.7287 211.73 29.8247C212.796 30.9165 213.332 32.4257 213.332 34.3522V36.148H204.58C204.618 37.1998 204.93 38.0197 205.516 38.6099C206.1 39.2001 206.918 39.4952 207.969 39.4952C208.783 39.4952 209.555 39.4108 210.28 39.2422C211.009 39.0736 211.772 38.8017 212.564 38.4244V41.291C211.917 41.6177 211.226 41.8601 210.49 42.016C209.753 42.172 208.857 42.2521 207.801 42.2521Z" fill="#29699D"/>
<path d="M221.852 42.2521C217.624 42.2521 215.512 39.9336 215.512 35.2965C215.512 32.9927 216.085 31.2306 217.232 30.0102C218.382 28.7919 220.033 28.1807 222.181 28.1807C223.749 28.1807 225.157 28.4905 226.405 29.1081L225.309 31.9746C224.723 31.7386 224.181 31.5489 223.681 31.4013C223.18 31.2496 222.68 31.1737 222.181 31.1737C220.252 31.1737 219.289 32.5395 219.289 35.2712C219.289 37.9249 220.252 39.2507 222.181 39.2507C222.889 39.2507 223.547 39.1579 224.154 38.9724C224.761 38.7827 225.368 38.4834 225.975 38.0787V41.2404C225.378 41.624 224.773 41.8875 224.162 42.0329C223.549 42.1783 222.779 42.2521 221.852 42.2521Z" fill="#29699D"/>
<path d="M228.964 24.9347C228.964 23.727 229.634 23.1221 230.979 23.1221C232.315 23.1221 232.986 23.727 232.986 24.9347C232.986 25.5081 232.817 25.9549 232.48 26.2753C232.147 26.5957 231.647 26.7559 230.979 26.7559C229.634 26.7559 228.964 26.1488 228.964 24.9347ZM232.817 42.0077H229.116V28.4421H232.817V42.0077Z" fill="#29699D"/>
<path d="M244.204 31.216H241V42.0078H237.299V31.216H235.258V29.4371L237.299 28.4422V27.4473C237.299 25.9023 237.678 24.7726 238.437 24.0581C239.196 23.3456 240.412 22.9873 242.087 22.9873C243.369 22.9873 244.507 23.1791 245.502 23.5606L244.558 26.2754C243.81 26.0457 243.12 25.9297 242.492 25.9297C241.963 25.9297 241.582 26.0878 241.346 26.4019C241.114 26.7117 241 27.108 241 27.5907V28.4422H244.204V31.216Z" fill="#29699D"/>
<path d="M251.947 30.8196C251.158 30.8196 250.543 31.0704 250.1 31.57C249.655 32.0653 249.4 32.7714 249.333 33.6862H254.526C254.514 32.7714 254.276 32.0653 253.81 31.57C253.348 31.0704 252.726 30.8196 251.947 30.8196ZM252.469 42.2521C250.281 42.2521 248.574 41.6514 247.343 40.4479C246.112 39.2401 245.497 37.5307 245.497 35.3218C245.497 33.0454 246.064 31.2875 247.2 30.0439C248.34 28.8025 249.915 28.1807 251.921 28.1807C253.837 28.1807 255.33 28.7287 256.398 29.8247C257.465 30.9165 258 32.4257 258 34.3522V36.148H249.249C249.287 37.1998 249.599 38.0197 250.184 38.6099C250.768 39.2001 251.586 39.4952 252.638 39.4952C253.452 39.4952 254.223 39.4108 254.948 39.2422C255.677 39.0736 256.44 38.8017 257.233 38.4244V41.291C256.586 41.6177 255.894 41.8601 255.159 42.016C254.421 42.172 253.525 42.2521 252.469 42.2521Z" fill="#29699D"/>
</svg>
