<svg xmlns="http://www.w3.org/2000/svg" viewBox="0 0 64 64"><defs><style>.cls-1{fill:#009ede;}.cls-2{fill:#0083ca;}.cls-3{fill:none;}.cls-4{fill:#fff;}</style></defs><g id="_38.cloud" data-name="38.cloud"><path class="cls-1" d="M11.61,51.1a11.38,11.38,0,0,1-1.55-.71A10.37,10.37,0,0,0,11.61,51.1Z" id="id_188" style="fill: rgb(0, 0, 0);"></path><path class="cls-1" d="M9.06,49.78l-.41-.29Z" id="id_189" style="fill: rgb(0, 0, 0);"></path><path class="cls-1" d="M9.88,50.29,9.34,50Z" id="id_190" style="fill: rgb(0, 0, 0);"></path><path class="cls-1" d="M4,41A11.55,11.55,0,0,0,8.6,49.45C6.41,41.8,13.2,33.92,21.1,35a15.52,15.52,0,0,1,14.7-9l-2.87-1.36H26.31L22.44,26l-4.69,4-1.31,2.44L13,32.63l-2.52-1.36c0,.3.08.6.14.89A10.62,10.62,0,0,0,4,41Z" id="id_191" style="fill: rgb(141, 207, 235);"></path><path class="cls-2" d="M21.1,35c-7.9-1.09-14.69,6.8-12.5,14.45a11.81,11.81,0,0,0,7,2.36h31c.24,0,.49,0,.73,0A10.67,10.67,0,0,0,53.41,40a1.76,1.76,0,0,0,.2-.09l-1.16-.68-2.76-3.87-3.13-2.32c-1.25-.27-4.29-.91-5.52-1.06l-1.79-2.88-3.25-3-.2-.1A15.52,15.52,0,0,0,21.1,35Z" id="id_192" style="fill: rgb(73, 172, 214);"></path><path class="cls-3" d="M23.73,19.22a14.33,14.33,0,0,1,.92-1.68s-1.36,1.63-1.37,1.65C23.43,19.2,23.58,19.2,23.73,19.22Z" id="id_193"></path><path class="cls-3" d="M50.64,20.8c.49.89,1.55.31,2.35.35l-.92-.56H50.53A.7.7,0,0,0,50.64,20.8Z" id="id_194"></path><path class="cls-1" d="M23.28,19.19l-1.17,1.4H18.94l-3.89,2L11.81,27v5l4.27.27A11.67,11.67,0,0,1,19.35,28l.57-1L24.65,25,28,24.28l.55.08A15.55,15.55,0,0,1,44.73,16.7l-.35-.5-3.34-3-5.77-1L30,13.07l-5.39,4.47a14.33,14.33,0,0,0-.92,1.68C23.58,19.2,23.43,19.2,23.28,19.19Z" id="id_195" style="fill: rgb(141, 207, 235);"></path><path class="cls-2" d="M28.55,24.36l5.61.83,5.09,3.93L41,32.32l4,.59,3.49,1.34L52,38.64l1.88.25,4.66-4.64.87-4-2.37-6.67L53,21.15c-.87,0-2.07.55-2.46-.56H47.47L44.73,16.7A15.55,15.55,0,0,0,28.55,24.36Z" id="id_196" style="fill: rgb(73, 172, 214);"></path><path class="cls-2" d="M16.08,32.27l.88,0L19.35,28A11.67,11.67,0,0,0,16.08,32.27Z" id="id_197" style="fill: rgb(255, 255, 255);"></path><path class="cls-4" d="M31.78,26.49c-1.58-.71-9-.57-8.29,2.08a1,1,0,0,0,.9.55,10,10,0,0,1,6.85-.7A1,1,0,0,0,31.78,26.49Z" id="id_198"></path><path class="cls-4" d="M21,29.37c-1.41.92-.27,2.95,1.08,1.78C23.43,30.27,22.33,28.3,21,29.37Z" id="id_199"></path><path class="cls-4" d="M17.73,34.93A7.78,7.78,0,0,0,8.61,37a1,1,0,1,0,1.53,1.29,5.77,5.77,0,0,1,4.41-2c1.21-.28,2.89,1.39,3.69,0A1,1,0,0,0,17.73,34.93Z" id="id_200"></path><path class="cls-4" d="M8.13,39.61c-1.56-.44-2,3.51-.36,3.42C9,43,8.7,41.62,8.9,40.8A1,1,0,0,0,8.13,39.61Z" id="id_201"></path><path d="M60,30.15A10.69,10.69,0,0,0,48.2,19.55c-4.86-10.91-21.15-10.91-26,0a10.68,10.68,0,0,0-11.6,12.61C-.1,36.58,3.05,52.65,14.66,52.71H42.94A10.69,10.69,0,0,0,53.41,40,10.62,10.62,0,0,0,60,30.15ZM42.94,50.71H14.65A8.69,8.69,0,0,1,6,42c-.05-9.37,13.11-12,16.68-3.34a1,1,0,0,0,1.31.54,1,1,0,0,0,.54-1.3,10.71,10.71,0,0,0-6.69-6.09c4.25-8.8,17.72-8.8,22,0a10.74,10.74,0,0,0-6.7,6.08,1,1,0,1,0,1.84.77,8.76,8.76,0,0,1,8-5.34C54.39,33.66,54.39,50.4,42.94,50.71Zm9.92-12.63a10.71,10.71,0,0,0-11-6.66c-4.88-10.92-21.16-10.91-26,0a10.64,10.64,0,0,0-3.28.14c-1.4-7,6.74-12.63,12.81-9a1,1,0,0,0,1.37-.38c.65-1.46-1.52-1.86-2.48-2.25,4.24-8.8,17.74-8.8,22,0-1,.39-3.13.79-2.48,2.25a1,1,0,0,0,1.36.38,8.87,8.87,0,0,1,4.28-1.12C58.61,21.44,61.33,34.41,52.86,38.08Z" id="id_202" style="fill: rgb(166, 207, 224);"></path><path class="cls-4" d="M40.52,16.12c-1.33-.83-7.36-2.7-7.51-.19a1,1,0,0,0,1.11.88,9,9,0,0,1,5.43,1.06A1,1,0,0,0,40.52,16.12Z" id="id_203"></path><path class="cls-4" d="M29.48,16.35c-.74.45-2,1.18-1.26,2.17a1,1,0,0,0,1.4.17c.65-.5,1.82-1,1.23-2A1,1,0,0,0,29.48,16.35Z" id="id_204"></path><path class="cls-4" d="M55.67,27.7a1,1,0,0,0-1.91.59c.67,1.13-.49,3.34,1.1,3.7C56.8,31.89,55.92,28.94,55.67,27.7Z" id="id_205"></path><path class="cls-4" d="M53.6,24.29c-.61-.61-1.68-1.62-2.42-.63a1,1,0,0,0,.24,1.4c.5.29.85,1,1.48.94A1,1,0,0,0,53.6,24.29Z" id="id_206"></path></g></svg>