<svg xmlns="http://www.w3.org/2000/svg" viewBox="0 0 64 64"><defs><style>.cls-1{fill:none;}.cls-2{fill:#009ede;}.cls-3{fill:#0083ca;}.cls-4{fill:#fff;}</style></defs><g id="_48.cloud" data-name="48.cloud"><path d="M25,48.18H20.76l4.06-6.5a1,1,0,0,0-1.7-1.06l-5,8A1,1,0,0,0,19,50.18H23.1l-5,7.48a1,1,0,0,0,1.66,1.11l6-9A1,1,0,0,0,25,48.18Z" id="id_133" style="fill: rgb(255, 191, 0);"></path><path d="M45.05,48.18H40.83l4.06-6.5a1,1,0,0,0-1.69-1.06l-5,8A1,1,0,0,0,39,50.18h4.15l-5,7.48a1,1,0,0,0,1.67,1.11l6-9A1,1,0,0,0,45.05,48.18Z" id="id_134" style="fill: rgb(255, 191, 0);"></path><path d="M35,48.18H30.79l4.07-6.5a1,1,0,0,0-1.7-1.06l-5,8A1,1,0,0,0,29,50.18h4.15l-5,7.48a1,1,0,0,0,1.66,1.11l6-9A1,1,0,0,0,35,48.18Z" id="id_135" style="fill: rgb(255, 191, 0);"></path><path class="cls-1" d="M20.19,9.94a16.07,16.07,0,0,0-2.54,3.68h.11A15.94,15.94,0,0,1,20.19,9.94Z" id="id_136"></path><path class="cls-1" d="M20.61,9.49l.07-.06Z" id="id_137"></path><path class="cls-2" d="M15.3,36.81l-.4-.05Z" id="id_138"></path><path class="cls-2" d="M44.54,13.49a2.53,2.53,0,0,1,.13.22A2.53,2.53,0,0,0,44.54,13.49Z" id="id_139"></path><path class="cls-2" d="M14.23,36.66l-.5-.1Z" id="id_140"></path><path class="cls-2" d="M13.23,36.43l-.58-.17Z" id="id_141"></path><path class="cls-2" d="M12.34,36.15a12.16,12.16,0,0,1-3.1-1.66C7,26.73,14,18.87,22.1,20c3.43-7.72,13.48-11.29,21.18-7.72l.24-.26.29.4A22.32,22.32,0,0,0,41,9.32a5.4,5.4,0,0,1-.2-2c-7.55-5.16-19.29-2.19-23,6.27h-.11c-.09.17-.18.33-.26.51C3.51,12.7-.46,31.45,12.34,36.15Z" id="id_142" style="fill: rgb(141, 207, 235);"></path><path class="cls-3" d="M55,17.85c-2.18-1.08-4.1-2.45-6.75-2.29-.86-.11-1.74.4-2.52,0C44.87,14.49,44.48,13,43.52,12l-.24.26c-7.7-3.57-17.75,0-21.18,7.72C14,18.87,7,26.73,9.24,34.49a12.17,12.17,0,0,0,7.18,2.38H48.26a11.24,11.24,0,0,0,8-19.45A4,4,0,0,1,55,17.85Z" id="id_143" style="fill: rgb(73, 172, 214);"></path><path class="cls-4" d="M35.33,8.54c-1.69-.8-9.95-.62-9.21,2.16a1,1,0,0,0,.9.55,11.35,11.35,0,0,1,7.77-.79A1,1,0,0,0,35.33,8.54Z" id="id_144"></path><path class="cls-4" d="M23.4,11.66c-.92.63-1.26,2.14.17,2.28.56,0,.88-.52,1.24-.87C25.74,12.17,24.3,10.73,23.4,11.66Z" id="id_145"></path><path class="cls-4" d="M19.45,18.06A8.7,8.7,0,0,0,9.3,20.36a1,1,0,0,0,.12,1.41,1,1,0,0,0,1.41-.11A6.64,6.64,0,0,1,15.9,19.3c1.3-.31,3.27,1.5,4,.08A1,1,0,0,0,19.45,18.06Z" id="id_146"></path><path class="cls-4" d="M8.64,23.35C7.21,23.13,7.3,25,7.25,26a1,1,0,0,0,1,1c1.31,0,.9-1.56,1.15-2.42A1,1,0,0,0,8.64,23.35Z" id="id_147"></path><path d="M46.61,14.13c-5.41-12.34-23.8-12.34-29.22,0C.77,12.88-.64,37.18,16,37.89H48C64.53,37.28,63.3,12.86,46.61,14.13ZM48,35.89H16A10,10,0,0,1,6.1,26c0-10.72,15-13.71,19.09-3.82A1,1,0,1,0,27,21.37a12,12,0,0,0-7.63-6.83c4.78-10.21,20.4-10.21,25.19,0A12,12,0,0,0,37,21.37a1,1,0,0,0,1.85.77c4.1-9.89,19.11-6.9,19.09,3.82A10,10,0,0,1,48,35.89Z" id="id_148" style="fill: rgb(166, 207, 224);"></path></g></svg>